<?xml version="1.0" encoding="UTF-8"?>
<svg version="1.1" xmlns="http://www.w3.org/2000/svg" width="1536" height="1024">
<path d="M0 0 C506.88 0 1013.76 0 1536 0 C1536 337.92 1536 675.84 1536 1024 C1029.12 1024 522.24 1024 0 1024 C0 686.08 0 348.16 0 0 Z " fill="transparent" transform="translate(0,0)"/>
<path d="M0 0 C12.44703032 11.22613611 24.00610331 22.92589582 33.1953125 36.97998047 C33.60894043 37.59196289 34.02256836 38.20394531 34.44873047 38.83447266 C55.67890897 70.29321933 65.38858004 105.39478326 65.5078125 143.10498047 C65.51043091 143.89867035 65.51304932 144.69236023 65.51574707 145.51010132 C65.52061066 159.32773132 64.29293996 172.48101934 61.1953125 185.97998047 C61.04046387 186.68767578 60.88561523 187.39537109 60.72607422 188.12451172 C52.73605929 224.01321664 31.62996173 266.67220939 1.3984375 289.05029297 C-0.96631232 290.77359195 -0.96631232 290.77359195 -1.4765625 293.26904297 C-1.51523438 294.42533203 -1.51523438 294.42533203 -1.5546875 295.60498047 C-1.75340545 299.87741637 -1.75340545 299.87741637 -2.8046875 301.97998047 C-2.2065625 301.31998047 -1.6084375 300.65998047 -0.9921875 299.97998047 C1.1953125 297.97998047 1.1953125 297.97998047 4.1953125 297.97998047 C3.8653125 299.29998047 3.5353125 300.61998047 3.1953125 301.97998047 C4.8453125 302.30998047 6.4953125 302.63998047 8.1953125 302.97998047 C9.14454518 311.36486918 6.03509184 317.13845847 0.86083984 323.66259766 C-6.17560029 332.04634151 -14.07431945 339.10185383 -22.87988281 345.56298828 C-24.91994083 347.06482703 -26.93608127 348.5958374 -28.953125 350.12841797 C-37.81548869 356.7761825 -46.92791759 362.59407773 -56.63696289 367.93481445 C-59.04128003 369.25829391 -61.42338438 370.61566268 -63.8046875 371.97998047 C-64.51455811 372.35147217 -65.22442871 372.72296387 -65.95581055 373.10571289 C-68.19283663 374.32306406 -68.19283663 374.32306406 -70.8046875 376.97998047 C-71.62352648 380.13597644 -71.47435197 383.06003665 -71.2421875 386.29248047 C-71.21060547 387.1284375 -71.17902344 387.96439453 -71.14648438 388.82568359 C-71.0643663 390.87863553 -70.93881345 392.92976944 -70.8046875 394.97998047 C-69.1546875 395.63998047 -67.5046875 396.29998047 -65.8046875 396.97998047 C-85.50433492 535.81559087 -85.50433492 535.81559087 -113.8046875 569.97998047 C-114.41828125 570.75341797 -115.031875 571.52685547 -115.6640625 572.32373047 C-124.58830774 583.03282476 -137.85373781 591.43841837 -151.89233398 593.24926758 C-177.00137506 595.17150386 -202.76221397 587.28184549 -226.25244141 579.19433594 C-230.41044381 577.77289924 -234.58101717 576.39211632 -238.75390625 575.01513672 C-253.48945762 570.14403676 -268.18493818 565.18981876 -282.8046875 559.97998047 C-282.94455078 561.06972168 -283.08441406 562.15946289 -283.22851562 563.28222656 C-286.41529614 588.07150132 -289.71281075 612.84471627 -293.1171875 637.60498047 C-293.29362793 638.89362 -293.47006836 640.18225952 -293.65185547 641.50994873 C-294.15481038 645.17998447 -294.66085859 648.84957936 -295.16796875 652.51904297 C-295.31877396 653.62121155 -295.46957916 654.72338013 -295.62495422 655.85894775 C-295.76587997 656.8729364 -295.90680573 657.88692505 -296.05200195 658.93164062 C-296.17380325 659.81437653 -296.29560455 660.69711243 -296.4210968 661.6065979 C-296.8046875 663.97998047 -296.8046875 663.97998047 -297.41581726 666.08898926 C-298.09291482 669.38156708 -296.39882194 672.28043 -295.1484375 675.28466797 C-294.53893802 676.80906494 -293.92991224 678.33365138 -293.32128906 679.85839844 C-292.99326294 680.66935974 -292.66523682 681.48032104 -292.32727051 682.31585693 C-277.69335414 718.65258576 -266.38540475 756.02538791 -256.8046875 793.97998047 C-256.49740723 795.18831543 -256.19012695 796.39665039 -255.87353516 797.64160156 C-250.0234059 820.79793329 -245.10803902 844.22685689 -240.8671875 867.72998047 C-240.54995728 869.47855347 -240.54995728 869.47855347 -240.22631836 871.26245117 C-240.03690674 872.33970459 -239.84749512 873.41695801 -239.65234375 874.52685547 C-239.48742432 875.46368164 -239.32250488 876.40050781 -239.15258789 877.36572266 C-238.8046875 879.97998047 -238.8046875 879.97998047 -238.8046875 884.97998047 C-353.3146875 884.97998047 -467.8246875 884.97998047 -585.8046875 884.97998047 C-585.8046875 871.46498242 -585.8046875 871.46498242 -584.73828125 866.01123047 C-584.50375244 864.795 -584.26922363 863.57876953 -584.02758789 862.32568359 C-583.76840576 861.05660156 -583.50922363 859.78751953 -583.2421875 858.47998047 C-582.97059041 857.11996068 -582.69902528 855.75993452 -582.42749023 854.39990234 C-578.43333669 834.64617507 -573.36550339 815.22918063 -567.34375 795.99951172 C-566.09142208 791.97907638 -565.00152338 787.94420573 -563.9921875 783.85498047 C-560.36987411 769.82645974 -555.3051628 755.82458845 -549.99609375 742.35107422 C-548.58254075 738.94731995 -548.58254075 738.94731995 -548.8046875 734.97998047 C-549.31741211 734.71894531 -549.83013672 734.45791016 -550.35839844 734.18896484 C-560.58677026 728.95797487 -570.43028101 723.64509445 -579.8046875 716.97998047 C-580.91980293 716.21323443 -582.03572481 715.44766028 -583.15234375 714.68310547 C-591.85889159 708.66398844 -599.94978532 702.07037881 -607.8046875 694.97998047 C-608.6503125 694.21943359 -609.4959375 693.45888672 -610.3671875 692.67529297 C-619.13114711 684.36778959 -626.06537721 674.50952053 -629.8046875 662.97998047 C-630.2996875 661.49498047 -630.2996875 661.49498047 -630.8046875 659.97998047 C-630.93866579 657.12818333 -631.01655719 654.30184622 -631.04296875 651.44873047 C-631.05267197 650.59338715 -631.06237518 649.73804382 -631.07237244 648.85678101 C-631.09746046 646.06446693 -631.10992906 643.27239633 -631.1171875 640.47998047 C-631.11980591 639.53125061 -631.12242432 638.58252075 -631.12512207 637.6050415 C-631.1310236 617.67093423 -629.23231104 598.47796238 -623.91064453 579.20288086 C-623.1116447 576.24075195 -622.41623934 573.27220907 -621.77758789 570.27148438 C-618.75962251 556.09921453 -614.72994838 542.41765293 -610.1796875 528.66748047 C-609.6527832 527.06212936 -609.6527832 527.06212936 -609.11523438 525.42434692 C-603.86946181 509.48338067 -598.23193226 494.04835975 -590.8046875 478.97998047 C-590.06885611 477.43249506 -589.33442859 475.88434115 -588.6015625 474.33544922 C-582.85269741 462.34696226 -575.69951137 451.65067814 -567.8046875 440.97998047 C-566.30300906 438.9187022 -564.80295867 436.8562367 -563.3046875 434.79248047 C-562.13802083 433.1883138 -560.97135417 431.58414714 -559.8046875 429.97998047 C-560.8359375 429.93873047 -561.8671875 429.89748047 -562.9296875 429.85498047 C-574.2671656 428.36743902 -584.33992053 422.48953987 -591.8046875 413.97998047 C-600.002268 403.06727776 -602.1438755 391.35536803 -600.8046875 377.97998047 C-599.63563928 371.19170716 -597.32879058 365.07891823 -594.53515625 358.82373047 C-594.129021 357.91067139 -593.72288574 356.9976123 -593.30444336 356.05688477 C-592.49284964 354.26167562 -591.66009904 352.47582782 -590.80297852 350.7019043 C-587.33325101 343.15218842 -586.56754567 335.9856861 -588.8046875 327.91748047 C-591.58706732 316.4169772 -591.1576575 304.73185449 -585.2578125 294.34716797 C-581.6349407 289.04291207 -576.8725455 284.74645966 -572.2421875 280.33935547 C-557.01808762 265.73154847 -550.39000674 247.58140597 -546.92407227 227.31713867 C-541.79332476 197.49238567 -527.66258251 170.39668635 -502.55078125 152.62841797 C-489.97516955 144.06554213 -476.60968325 139.11799587 -461.8046875 135.97998047 C-460.88816406 135.78404297 -459.97164062 135.58810547 -459.02734375 135.38623047 C-436.99002121 132.60819223 -414.17239922 135.78974703 -394.8046875 146.97998047 C-394.4746875 147.30998047 -394.1446875 147.63998047 -393.8046875 147.97998047 C-391.78480038 148.17741304 -389.76369872 148.36243606 -387.7421875 148.54248047 C-370.78568555 150.92294565 -357.63006653 161.06075774 -347.4296875 174.41748047 C-335.97476871 191.24337778 -333.33923246 206.91203709 -333.21948242 226.89355469 C-332.97639542 247.58175204 -326.864396 266.24262902 -311.95336914 280.89233398 C-310.521575 282.28345678 -309.08977162 283.67457007 -307.65795898 285.06567383 C-302.39407738 290.23721743 -298.11874773 295.3313395 -294.8046875 301.97998047 C-294.37800781 302.75341797 -293.95132812 303.52685547 -293.51171875 304.32373047 C-288.32730754 315.50648776 -288.97982685 330.78448407 -292.96240234 342.23046875 C-293.52120038 343.72286444 -294.0814083 345.21473302 -294.64306641 346.70605469 C-298.63618904 357.49939468 -297.61542865 365.99697761 -292.96020508 376.35986328 C-289.66167342 384.0115795 -289.46139984 392.27804604 -291.7421875 400.29248047 C-294.06511537 405.4994299 -298.68152147 409.19294211 -302.8046875 412.97998047 C-303.8101849 413.97445268 -304.81266797 414.97206319 -305.8046875 415.97998047 C-304.84175781 416.32222656 -304.84175781 416.32222656 -303.859375 416.67138672 C-300.60171754 418.06693052 -297.60794182 419.71912161 -294.52392578 421.45776367 C-282.87371113 428.01306514 -270.94454548 433.94227599 -258.9296875 439.79248047 C-258.10374084 440.19594696 -257.27779419 440.59941345 -256.42681885 441.0151062 C-246.83069922 445.69704843 -237.18973887 450.21354734 -227.37695312 454.42382812 C-223.60961793 456.06495678 -219.89594695 457.78902699 -216.1796875 459.54248047 C-209.12526145 462.8639087 -201.98751036 465.94645819 -194.8046875 468.97998047 C-193.90363281 469.39473633 -193.90363281 469.39473633 -192.984375 469.81787109 C-189.5990729 471.35566258 -187.60209038 471.97998047 -183.8046875 471.97998047 C-183.15790039 470.60338257 -183.15790039 470.60338257 -182.49804688 469.19897461 C-173.89367117 450.8943285 -165.21990402 432.62728382 -156.37109375 414.43945312 C-155.72522352 413.11183435 -155.07938953 411.78419795 -154.43359375 410.45654297 C-154.12342316 409.81891022 -153.81325256 409.18127747 -153.49368286 408.52432251 C-149.20702374 399.70345337 -144.99999619 390.84458706 -140.8046875 381.97998047 C-136.5146875 381.97998047 -132.2246875 381.97998047 -127.8046875 381.97998047 C-127.7015625 379.95873047 -127.5984375 377.93748047 -127.4921875 375.85498047 C-126.48399563 362.4930776 -123.26732829 351.63043976 -116.8046875 339.97998047 C-117.57844727 339.99569092 -118.35220703 340.01140137 -119.14941406 340.02758789 C-141.99603994 340.4286731 -162.83421276 338.59971787 -184.8046875 331.97998047 C-185.50625977 331.77034668 -186.20783203 331.56071289 -186.93066406 331.34472656 C-215.93390202 322.45487142 -240.96069732 305.66373248 -262.8046875 284.97998047 C-263.73539063 284.10341797 -264.66609375 283.22685547 -265.625 282.32373047 C-281.36371673 267.07824987 -293.71492075 248.86384524 -302.8046875 228.97998047 C-303.14242188 228.2479541 -303.48015625 227.51592773 -303.828125 226.76171875 C-309.42427088 214.49385196 -313.60254187 202.07266311 -316.8046875 188.97998047 C-317.01641602 188.16303711 -317.22814453 187.34609375 -317.44628906 186.50439453 C-324.27346754 159.3146964 -323.60941971 126.13230509 -316.8046875 98.97998047 C-316.61745117 98.21234375 -316.43021484 97.44470703 -316.23730469 96.65380859 C-310.46929084 73.68137349 -300.49480162 52.24754849 -286.8046875 32.97998047 C-285.70833984 31.42150391 -285.70833984 31.42150391 -284.58984375 29.83154297 C-279.28546868 22.52244024 -273.39001724 15.90564819 -267.15478516 9.39306641 C-266.01037775 8.19526711 -264.88049686 6.98361494 -263.75390625 5.76904297 C-254.0586138 -4.40374783 -242.2168567 -12.42238319 -230.43701172 -19.97119141 C-229.06260207 -20.85429997 -227.6998034 -21.75544159 -226.33984375 -22.66064453 C-211.46772347 -32.17461954 -194.79747001 -37.7298954 -177.8046875 -42.02001953 C-177.03995117 -42.21966309 -176.27521484 -42.41930664 -175.48730469 -42.625 C-114.39391082 -58.53613664 -47.34839684 -41.41859524 0 0 Z " fill="#E65C83" transform="translate(1058.8046875,139.02001953125)"/>
<path d="M0 0 C12.44703032 11.22613611 24.00610331 22.92589582 33.1953125 36.97998047 C33.81575439 37.8979541 33.81575439 37.8979541 34.44873047 38.83447266 C55.67890897 70.29321933 65.38858004 105.39478326 65.5078125 143.10498047 C65.51043091 143.89867035 65.51304932 144.69236023 65.51574707 145.51010132 C65.52061066 159.32773132 64.29293996 172.48101934 61.1953125 185.97998047 C60.96303955 187.04152344 60.96303955 187.04152344 60.72607422 188.12451172 C52.73605929 224.01321664 31.62996173 266.67220939 1.3984375 289.05029297 C-0.96631232 290.77359195 -0.96631232 290.77359195 -1.4765625 293.26904297 C-1.50234375 294.03990234 -1.528125 294.81076172 -1.5546875 295.60498047 C-1.75340545 299.87741637 -1.75340545 299.87741637 -2.8046875 301.97998047 C-2.2065625 301.31998047 -1.6084375 300.65998047 -0.9921875 299.97998047 C1.1953125 297.97998047 1.1953125 297.97998047 4.1953125 297.97998047 C3.8653125 299.29998047 3.5353125 300.61998047 3.1953125 301.97998047 C4.8453125 302.30998047 6.4953125 302.63998047 8.1953125 302.97998047 C9.14454518 311.36486918 6.03509184 317.13845847 0.86083984 323.66259766 C-6.17560029 332.04634151 -14.07431945 339.10185383 -22.87988281 345.56298828 C-24.91994083 347.06482703 -26.93608127 348.5958374 -28.953125 350.12841797 C-37.81548869 356.7761825 -46.92791759 362.59407773 -56.63696289 367.93481445 C-59.04129455 369.25830191 -61.42387759 370.61476261 -63.8046875 371.97998047 C-64.50875732 372.35147217 -65.21282715 372.72296387 -65.93823242 373.10571289 C-68.73636088 374.76026769 -70.46727133 375.87208951 -71.43774414 379.05859375 C-71.71752191 381.49720071 -71.77511184 383.83864904 -71.7421875 386.29248047 C-71.75830078 387.1284375 -71.77441406 387.96439453 -71.79101562 388.82568359 C-71.82617796 390.87681958 -71.8195989 392.92859731 -71.8046875 394.97998047 C-72.76503906 394.74923828 -73.72539063 394.51849609 -74.71484375 394.28076172 C-79.40675568 393.16013971 -84.10516977 392.06819907 -88.8046875 390.97998047 C-90.14515137 390.66722168 -90.14515137 390.66722168 -91.51269531 390.34814453 C-105.53583878 387.09833668 -119.50938758 384.67381636 -133.8046875 382.97998047 C-133.8046875 382.64998047 -133.8046875 382.31998047 -133.8046875 381.97998047 C-131.8246875 381.97998047 -129.8446875 381.97998047 -127.8046875 381.97998047 C-127.76730469 381.13177734 -127.72992187 380.28357422 -127.69140625 379.40966797 C-126.87106465 364.77220017 -123.90166352 352.77398107 -116.8046875 339.97998047 C-117.57844727 339.99569092 -118.35220703 340.01140137 -119.14941406 340.02758789 C-141.99603994 340.4286731 -162.83421276 338.59971787 -184.8046875 331.97998047 C-185.50625977 331.77034668 -186.20783203 331.56071289 -186.93066406 331.34472656 C-215.93390202 322.45487142 -240.96069732 305.66373248 -262.8046875 284.97998047 C-263.73539063 284.10341797 -264.66609375 283.22685547 -265.625 282.32373047 C-281.36371673 267.07824987 -293.71492075 248.86384524 -302.8046875 228.97998047 C-303.14242187 228.2479541 -303.48015625 227.51592773 -303.828125 226.76171875 C-309.42427088 214.49385196 -313.60254187 202.07266311 -316.8046875 188.97998047 C-317.01641602 188.16303711 -317.22814453 187.34609375 -317.44628906 186.50439453 C-324.27346754 159.3146964 -323.60941971 126.13230509 -316.8046875 98.97998047 C-316.61745117 98.21234375 -316.43021484 97.44470703 -316.23730469 96.65380859 C-310.46929084 73.68137349 -300.49480162 52.24754849 -286.8046875 32.97998047 C-286.07378906 31.94099609 -285.34289062 30.90201172 -284.58984375 29.83154297 C-279.28546868 22.52244024 -273.39001724 15.90564819 -267.15478516 9.39306641 C-266.01037775 8.19526711 -264.88049686 6.98361494 -263.75390625 5.76904297 C-254.0586138 -4.40374783 -242.2168567 -12.42238319 -230.43701172 -19.97119141 C-229.06260207 -20.85429997 -227.6998034 -21.75544159 -226.33984375 -22.66064453 C-211.46772347 -32.17461954 -194.79747001 -37.7298954 -177.8046875 -42.02001953 C-177.03995117 -42.21966309 -176.27521484 -42.41930664 -175.48730469 -42.625 C-114.39391082 -58.53613664 -47.34839684 -41.41859524 0 0 Z " fill="#E65C83" transform="translate(1058.8046875,139.02001953125)"/>
<path d="M0 0 C2.65903713 5.81097864 2.34245164 11.26918255 2.3125 17.5625 C2.30758545 18.77180176 2.3026709 19.98110352 2.29760742 21.22705078 C2.16224567 31.72140482 1.09381406 41.72814266 -1 52 C-1.23348145 53.19109375 -1.23348145 53.19109375 -1.47167969 54.40625 C-7.16760305 82.78354483 -17.71590765 110.5754401 -31.06494141 136.19921875 C-31.93557829 137.87593355 -32.78694284 139.56261682 -33.63671875 141.25 C-54.31003639 181.29516734 -87.0122833 210.33388327 -124 235 C-124.9374707 235.62729004 -125.87494141 236.25458008 -126.84082031 236.90087891 C-131.93589471 240.30973787 -137.03534011 243.71192065 -142.140625 247.10546875 C-143.10347412 247.74548828 -144.06632324 248.38550781 -145.05834961 249.04492188 C-147.05118095 250.36939639 -149.04418761 251.69360714 -151.03735352 253.01757812 C-157.53612134 257.34071002 -164.01439248 261.69011583 -170.4375 266.125 C-171.29537109 266.70636719 -172.15324219 267.28773438 -173.03710938 267.88671875 C-182.24077212 274.26013044 -185.93560122 280.31579422 -189.3125 290.875 C-189.69639893 292.05320312 -190.08029785 293.23140625 -190.47583008 294.4453125 C-195.03648827 308.77854194 -198.58150101 323.35954631 -202 338 C-202.42756592 339.81975342 -202.42756592 339.81975342 -202.86376953 341.67626953 C-210.22307486 373.21056722 -216.36922222 405.86244486 -216.0625 438.375 C-216.05347656 439.64085937 -216.04445313 440.90671875 -216.03515625 442.2109375 C-216.02355469 443.13132812 -216.01195312 444.05171875 -216 445 C-215.56171875 443.95585938 -215.1234375 442.91171875 -214.671875 441.8359375 C-205.89100314 421.29987472 -195.26742232 400.87677071 -181.1640625 383.44140625 C-174.27009022 374.79632779 -172.25831199 367.13113074 -170.4375 356.31787109 C-169.25394266 350.04739488 -167.10989967 344.00931752 -165 338 C-164.75411133 337.29552734 -164.50822266 336.59105469 -164.25488281 335.86523438 C-157.89042779 317.9297689 -149.04083042 301.47867943 -138 286 C-137.24847656 284.94167969 -136.49695312 283.88335938 -135.72265625 282.79296875 C-131.23280812 276.64605892 -126.39722285 270.96771007 -121.2109375 265.3984375 C-119.51394341 263.55752872 -117.92270352 261.71319439 -116.375 259.75 C-113.9162406 256.90301543 -111.33979443 254.53439022 -108.4765625 252.10546875 C-106.59357264 250.50463036 -104.7413253 248.88415531 -102.8984375 247.23828125 C-94.73226576 239.99960207 -86.2892265 233.72037591 -77 228 C-76.23864746 227.525625 -75.47729492 227.05125 -74.69287109 226.5625 C-51.87682661 212.4851976 -26.47768018 201.14849561 0.625 200.8125 C1.34212158 200.79928711 2.05924316 200.78607422 2.7980957 200.77246094 C7.50920475 200.76593811 11.51448921 201.38996149 16 203 C18.61147577 205.61147577 18.35840251 206.78505692 18.4375 210.4375 C17.96135322 237.45882992 2.95384884 265.7324726 -14 286 C-14.46132324 286.56138672 -14.92264648 287.12277344 -15.39794922 287.70117188 C-25.04845956 299.42688508 -35.35318124 310.41490493 -47.29296875 319.84375 C-49.09930166 321.28256063 -50.87356093 322.76257038 -52.61328125 324.28125 C-79.48043989 347.69025951 -112.09047159 363.12356362 -146.1875 372.6875 C-146.91831787 372.89391113 -147.64913574 373.10032227 -148.40209961 373.31298828 C-152.11473598 374.32758599 -155.78466359 375.16439361 -159.5859375 375.7734375 C-166.78517271 376.98639861 -172.19042416 378.08007786 -176.875 384.1875 C-177.90943677 385.8318359 -178.9418258 387.47850156 -179.91357422 389.16064453 C-181.0819578 391.13875731 -182.33978548 393.03210587 -183.62890625 394.93359375 C-197.58217644 415.63253318 -208.26606831 437.66402626 -217 461 C-218.32 461 -219.64 461 -221 461 C-220.98889694 460.38327423 -220.97779388 459.76654846 -220.96635437 459.13113403 C-220.85517315 452.67415953 -220.78009029 446.21745982 -220.7253418 439.75976562 C-220.70029916 437.3543797 -220.666255 434.94906911 -220.62280273 432.54394531 C-220.5617012 429.07337794 -220.53368637 425.60382228 -220.51171875 422.1328125 C-220.47300911 420.53688766 -220.47300911 420.53688766 -220.43351746 418.90872192 C-220.43083682 411.6665129 -221.77436648 405.99256256 -226 400 C-228.28303885 398.13496886 -230.5229967 397.03225787 -233.25 395.9375 C-234.67942178 395.29135029 -236.10777327 394.64282865 -237.53515625 393.9921875 C-238.27008301 393.66831055 -239.00500977 393.34443359 -239.76220703 393.01074219 C-263.70629744 382.19593374 -288.00429886 365.71930889 -302 343 C-302.63615234 341.98099609 -302.63615234 341.98099609 -303.28515625 340.94140625 C-313.5821444 323.4265936 -321.70859819 301.79124807 -317.421875 281.2265625 C-316.19861988 277.62186389 -315.20671576 276.13781051 -312 274 C-297.18333328 271.66569927 -281.71316053 278.88318528 -269.90625 287.171875 C-266.89221253 289.39510066 -263.93964366 291.67967521 -261 294 C-260.36449219 294.46792969 -259.72898437 294.93585938 -259.07421875 295.41796875 C-234.41984618 314.54128876 -230.13612326 347.01129664 -225.3125 375.625 C-225.09795166 376.89327637 -224.88340332 378.16155273 -224.66235352 379.46826172 C-223.64066986 385.64241229 -222.7294009 391.77178044 -222.24121094 398.01269531 C-221.93233375 400.55749322 -221.14316433 402.71367133 -220 405 C-219.34 405 -218.68 405 -218 405 C-217.98582031 404.18144531 -217.97164062 403.36289062 -217.95703125 402.51953125 C-216.78238862 372.39153502 -208.60500857 342.37058186 -201 313.3125 C-200.70440186 312.16918213 -200.40880371 311.02586426 -200.10424805 309.84790039 C-198.70645247 304.630084 -197.29950177 299.61433717 -195.20239258 294.63769531 C-189.21218424 280.07022513 -189.23588305 266.71360716 -189.6875 251.125 C-189.79174932 246.31533008 -189.87593049 241.50554888 -189.94921875 236.6953125 C-189.96804108 235.5313797 -189.9868634 234.3674469 -190.0062561 233.16824341 C-190.16158748 218.68547229 -189.30537312 203.96668169 -185.75 189.875 C-185.53529053 188.98087402 -185.32058105 188.08674805 -185.09936523 187.16552734 C-182.76713613 177.6678147 -180.0464185 168.29207912 -177 159 C-176.67443115 158.00105713 -176.67443115 158.00105713 -176.34228516 156.98193359 C-168.06647793 132.12906748 -155.09112841 107.66665919 -139 87 C-138.15070441 85.88437125 -137.30176923 84.76846807 -136.453125 83.65234375 C-107.06273627 45.30333107 -51.67054041 -3.38453321 0 0 Z " fill="#FEDAE6" transform="translate(1165,506)"/>
<path d="M0 0 C0.99 0.33 1.98 0.66 3 1 C2.49037472 10.61203563 0.81820412 19.85172792 -1.125 29.25 C-1.43976219 30.79664937 -1.75420935 32.34336289 -2.06835938 33.89013672 C-4.52698773 45.93741568 -7.13305771 57.95144244 -9.78956604 69.9564209 C-11.8920012 79.45978634 -13.92377154 88.97747548 -15.9375 98.5 C-16.0931543 99.23575256 -16.24880859 99.97150513 -16.40917969 100.72955322 C-17.27420508 104.81940341 -18.13779061 108.90955507 -19 113 C-18.55422607 113.32049316 -18.10845215 113.64098633 -17.64916992 113.97119141 C-2.14566105 125.12488006 13.34158539 136.30409819 28.43359375 148.01171875 C29.70396484 148.99591797 29.70396484 148.99591797 31 150 C31.91060181 150.78141357 31.91060181 150.78141357 32.83959961 151.57861328 C37.04111333 154.34290449 42.22332093 153.90728401 47.125 154.1875 C47.77047791 154.22636322 48.41595581 154.26522644 49.08099365 154.30526733 C82.20213506 156.23507121 115.72111819 155.92501215 148.8125 153.6875 C149.69915344 153.62873688 150.58580688 153.56997375 151.49932861 153.50942993 C161.15548791 152.84806313 170.73775012 151.85731581 180.32421875 150.51953125 C181.18940628 150.39986496 182.05459381 150.28019867 182.94599915 150.15690613 C186.66081269 149.61206438 190.11728507 148.96556762 193.72973633 147.9050293 C196.98517269 147.00410338 199.6423872 146.83621401 203 147 C229.57076313 212.07766344 248.42754092 279.60675211 260.9375 348.75 C261.25509277 350.50002319 261.25509277 350.50002319 261.57910156 352.28540039 C261.76827148 353.36168701 261.95744141 354.43797363 262.15234375 355.546875 C262.31726318 356.48370117 262.48218262 357.42052734 262.65209961 358.38574219 C263 361 263 361 263 366 C148.49 366 33.98 366 -84 366 C-84 352.48500195 -84 352.48500195 -82.93359375 347.03125 C-82.69906494 345.81501953 -82.46453613 344.59878906 -82.22290039 343.34570312 C-81.96371826 342.07662109 -81.70453613 340.80753906 -81.4375 339.5 C-81.16590291 338.13998021 -80.89433778 336.77995405 -80.62280273 335.41992188 C-76.62864919 315.6661946 -71.56081589 296.24920016 -65.5390625 277.01953125 C-64.28673458 272.99909591 -63.19683588 268.96422527 -62.1875 264.875 C-60.19654416 257.18069468 -57.59143529 249.69585234 -55 242.1875 C-54.57227295 240.94661621 -54.1445459 239.70573242 -53.70385742 238.42724609 C-46.70966004 218.35483002 -46.70966004 218.35483002 -44 217 C-42.31225586 217.64233398 -42.31225586 217.64233398 -40.21484375 218.74609375 C-38.98471558 219.37209473 -38.98471558 219.37209473 -37.72973633 220.01074219 C-36.80829834 220.48157227 -35.88686035 220.95240234 -34.9375 221.4375 C-23.64111053 227.02765739 -12.05432308 231.6923002 -0.3125 236.25 C0.54215851 236.58321259 1.39681702 236.91642517 2.27737427 237.25973511 C14.75792109 242.11660982 27.33592763 246.64548468 40 251 C40.29438965 250.21214111 40.5887793 249.42428223 40.89208984 248.61254883 C42.10100366 245.76182455 43.22991412 244.59469801 45.625 242.6875 C46.25664063 242.17574219 46.88828125 241.66398438 47.5390625 241.13671875 C48.02117187 240.76160156 48.50328125 240.38648438 49 240 C49.556875 240.56847656 50.11375 241.13695312 50.6875 241.72265625 C55.6208405 246.71433017 60.66005486 251.45047703 66 256 C66.94488281 256.83402344 67.88976562 257.66804688 68.86328125 258.52734375 C76.77637499 265.4566941 85.07101377 271.44663471 94 277 C94.5892627 277.36754395 95.17852539 277.73508789 95.78564453 278.11376953 C105.94968674 284.37445643 118.95918828 292.16046884 131.125 292.125 C132.45917969 292.12886719 132.45917969 292.12886719 133.8203125 292.1328125 C135.97791088 292.24301985 135.97791088 292.24301985 137 291 C137.50135199 288.62778044 137.50135199 288.62778044 137 286 C133.74982769 283.00028899 130.53784226 281.23050383 126.5 279.5 C121.18030803 276.92616894 117.06024302 273.78459136 112.75 269.8125 C112.17701172 269.28914063 111.60402344 268.76578125 111.01367188 268.2265625 C109.6083108 266.88500309 108.29544796 265.44797651 107 264 C107 263.01 107 262.02 107 261 C110.50889978 262.29017289 113.4190361 263.80806025 116.484375 265.94140625 C117.3292749 266.52132324 118.1741748 267.10124023 119.04467773 267.69873047 C119.93743408 268.31377441 120.83019043 268.92881836 121.75 269.5625 C128.4946742 274.12557514 135.26402817 278.51328634 142.4375 282.375 C143.11586914 282.74955322 143.79423828 283.12410645 144.49316406 283.51000977 C148.48165644 285.59307869 151.5053011 286.5104599 156 286 C158.04451019 284.95625978 158.04451019 284.95625978 159 283 C159.14768913 280.48250172 159.14768913 280.48250172 158 278 C154.10797639 274.57995686 149.78776383 271.7670114 145.5 268.875 C135.5750558 262.11416682 126.0059875 254.95877965 117 247 C120 246 120 246 122.53125 247.15234375 C128.50311789 250.74332221 134.20025276 254.51959524 139.796875 258.66796875 C143.94126701 261.6852883 148.14062415 264.61068617 152.375 267.5 C153.14859863 268.04100342 153.92219727 268.58200684 154.71923828 269.1394043 C155.45899902 269.63996338 156.19875977 270.14052246 156.9609375 270.65625 C157.61884277 271.10806641 158.27674805 271.55988281 158.95458984 272.02539062 C161.45934775 273.21887279 163.25712095 273.2481404 166 273 C167.29956335 271.90801858 167.29956335 271.90801858 167.3125 269.25 C166.91308921 265.09612782 165.85222416 264.04296388 163 261 C160.25474441 258.82938409 157.38215398 256.85845954 154.5 254.875 C135.08605324 241.17644716 135.08605324 241.17644716 129 231 C129 230.34 129 229.68 129 229 C130.21816406 229.28875 131.43632813 229.5775 132.69140625 229.875 C134.31501171 230.25040011 135.93871489 230.62537772 137.5625 231 C138.36236328 231.19078125 139.16222656 231.3815625 139.98632812 231.578125 C144.78345532 232.67461122 149.08016034 233.21132197 154 233 C153.725588 229.70705606 153.38067622 228.34338261 150.88671875 226.09375 C129.57856423 210.63885037 103.21317085 204.07423631 78 198 C78.33 197.113125 78.66 196.22625 79 195.3125 C79.94443519 192.18405842 80.33420866 190.21487376 80 187 C75.29897371 180.633277 67.04511875 176.74109898 60.34408569 172.77838135 C58.46334605 171.66581711 56.58900559 170.5431177 54.71606445 169.41748047 C52.24950078 167.93564063 49.78127035 166.45666832 47.31103516 164.98095703 C37.52070671 159.12350791 27.9865779 153.14439281 18.84570312 146.31054688 C13.88414456 142.60873887 8.81003427 139.09978055 3.6875 135.625 C2.09080744 134.53174405 0.49445533 133.43799073 -1.1015625 132.34375 C-3.59182874 130.63740071 -6.08733407 128.94188661 -8.60058594 127.26953125 C-11.14440725 125.57555372 -13.66678224 123.85310408 -16.1875 122.125 C-16.97229736 121.61404785 -17.75709473 121.1030957 -18.56567383 120.57666016 C-19.28005615 120.07956543 -19.99443848 119.5824707 -20.73046875 119.0703125 C-21.36364014 118.64508301 -21.99681152 118.21985352 -22.64916992 117.78173828 C-24.81023967 114.93129783 -24.2693339 112.48268749 -24 109 C-23.61464543 106.69622442 -23.15910522 104.40339717 -22.64453125 102.125 C-22.50273941 101.48720108 -22.36094757 100.84940216 -22.21485901 100.192276 C-21.75411567 98.12661448 -21.28326338 96.06339854 -20.8125 94 C-20.48894989 92.55543526 -20.16620397 91.11069018 -19.84423828 89.66577148 C-19.20015524 86.77885165 -18.5526856 83.8927304 -17.90185547 81.00732422 C-16.70498485 75.69702555 -15.53377517 70.38123547 -14.375 65.0625 C-14.17688721 64.1535498 -13.97877441 63.24459961 -13.7746582 62.30810547 C-10.87599137 48.91262502 -8.24908355 35.45920615 -5.64453125 22.00390625 C-5.42152344 20.8629248 -5.19851563 19.72194336 -4.96875 18.54638672 C-4.5405971 16.35497021 -4.11719561 14.16261845 -3.69921875 11.96923828 C-3.50585938 10.98294434 -3.3125 9.99665039 -3.11328125 8.98046875 C-2.86251831 7.67952271 -2.86251831 7.67952271 -2.60668945 6.35229492 C-2.00403966 4.01566284 -1.16133644 2.1078363 0 0 Z " fill="#2E1026" transform="translate(557,658)"/>
<path d="M0 0 C0.33 0.33 0.66 0.66 1 1 C3.01988712 1.19743258 5.04098878 1.3824556 7.0625 1.5625 C24.01900195 3.94296518 37.17462097 14.08077727 47.375 27.4375 C58.82991879 44.26339731 61.46545504 59.93205662 61.58520508 79.91357422 C61.82829208 100.60177157 67.9402915 119.26264855 82.85131836 133.91235352 C84.2831125 135.30347631 85.71491588 136.6945896 87.14672852 138.08569336 C92.41061012 143.25723696 96.68593977 148.35135903 100 155 C100.42667969 155.7734375 100.85335938 156.546875 101.29296875 157.34375 C106.47737996 168.52650729 105.82486065 183.8045036 101.84228516 195.25048828 C101.28348712 196.74288397 100.7232792 198.23475256 100.16162109 199.72607422 C96.16849846 210.51941421 97.18925885 219.01699714 101.84448242 229.37988281 C105.14301408 237.03159903 105.34328766 245.29806557 103.0625 253.3125 C100.32675647 259.43157852 94.47139355 264.3524043 89 268 C84.62256532 267.70168593 80.76457946 266.26881532 76.68237305 264.77783203 C66.35738221 261.0414766 55.90347815 258.4250727 45.1875 256.125 C44.16104874 255.89873932 44.16104874 255.89873932 43.11386108 255.66790771 C34.16100236 253.70878664 25.5719576 252.61676372 16.40087891 252.4140625 C11.87876918 251.86348834 9.46869942 250.2580166 6.41796875 246.96484375 C2.96491677 242.18003619 1.56000799 238.01322413 2 232 C0.96939453 232.23976563 0.96939453 232.23976563 -0.08203125 232.484375 C-14.31061213 234.99866238 -26.03402302 231.5710127 -38 224 C-47.08046224 217.57318883 -56.37306558 209.71925036 -62 200 C-59.50213472 200.99774832 -57.00531818 201.99785092 -54.51147461 203.00561523 C-32.43429059 211.91540233 -6.64540226 221.27982966 17 212 C31.75112741 205.55075117 41.24221688 195.80525987 47.1875 180.875 C56.36581465 153.14804111 52.5800383 122.60386952 45.8671875 94.71484375 C45.11274096 91.48295789 44.50134375 88.27919741 44 85 C42.80503906 85.144375 41.61007812 85.28875 40.37890625 85.4375 C38.77346911 85.62527043 37.16799852 85.8127551 35.5625 86 C34.77939453 86.09539062 33.99628906 86.19078125 33.18945312 86.2890625 C21.78432914 87.60323317 21.78432914 87.60323317 17 87 C15 85 15 85 14.5625 82.625 C15 80 15 80 16.921875 77.85546875 C21.22940476 75.25892479 24.76167047 75.52045981 29.6875 75.6875 C30.55439453 75.69716797 31.42128906 75.70683594 32.31445312 75.71679688 C38.66077734 75.83038867 38.66077734 75.83038867 41 77 C38.8994359 68.99159938 35.10362149 63.45603183 30 57 C29.55011719 56.38382812 29.10023438 55.76765625 28.63671875 55.1328125 C23.60347599 48.61920422 14.80821999 40.60274 7 38 C6.53851562 38.99257813 6.07703125 39.98515625 5.6015625 41.0078125 C-4.62278293 62.50317378 -18.9894329 80.86372287 -41.6875 89.9375 C-52.98763906 93.87100474 -64.02427897 96.24440247 -76 96 C-75.95875 97.134375 -75.9175 98.26875 -75.875 99.4375 C-75.91507398 110.85858419 -79.71481856 122.36070265 -87.609375 130.63671875 C-88.29773438 131.31154297 -88.29773438 131.31154297 -89 132 C-89.51949219 131.59007812 -90.03898438 131.18015625 -90.57421875 130.7578125 C-96.76937478 125.97116699 -100.91284779 123.42234627 -109 124 C-113.92376243 125.17232439 -116.08120038 127.97678972 -119 132 C-122.14131573 138.47964778 -121.96821345 145.86045267 -120.34765625 152.7890625 C-116.80048154 162.62371857 -110.68098549 168.13165251 -101.55078125 172.87109375 C-97.64304812 174.60054991 -94.51357153 175.12519958 -90.25 175.0625 C-89.45078125 175.05347656 -88.6515625 175.04445313 -87.828125 175.03515625 C-87.22484375 175.02355469 -86.6215625 175.01195312 -86 175 C-79.46840019 195.9210126 -76.9024302 216.34337798 -80.25 238.1875 C-80.35908691 238.93572021 -80.46817383 239.68394043 -80.58056641 240.45483398 C-81.10323449 243.38430982 -81.59578425 245.54538081 -83.59765625 247.796875 C-87.02782706 249.51474916 -90.57162077 250.8035299 -94.1875 252.0625 C-128.44196527 263.55332994 -128.44196527 263.55332994 -159.39453125 281.56640625 C-163.30667991 283.71896781 -166.62545989 283.59010283 -170.9284668 282.52075195 C-172.96669108 281.87815038 -174.94725106 281.15336823 -176.9375 280.375 C-177.64189209 280.10284668 -178.34628418 279.83069336 -179.07202148 279.55029297 C-184.38245674 277.41578465 -188.85882756 275.01479864 -193 271 C-193.61101562 270.41605469 -194.22203125 269.83210938 -194.8515625 269.23046875 C-204.15480359 259.51155093 -206.53320686 248.30494456 -206.265625 235.234375 C-205.88178049 226.85753313 -203.11277236 219.41701896 -199.73046875 211.84375 C-199.3243335 210.93069092 -198.91819824 210.01763184 -198.49975586 209.0769043 C-197.68816214 207.28169515 -196.85541154 205.49584735 -195.99829102 203.72192383 C-192.52856351 196.17220795 -191.76285817 189.00570563 -194 180.9375 C-196.78237982 169.43699674 -196.35297 157.75187402 -190.453125 147.3671875 C-186.8302532 142.06293161 -182.067858 137.76647919 -177.4375 133.359375 C-162.21340012 118.751568 -155.58531924 100.6014255 -152.11938477 80.3371582 C-146.98863726 50.5124052 -132.85789501 23.41670588 -107.74609375 5.6484375 C-95.17048205 -2.91443833 -81.80499575 -7.8619846 -67 -11 C-66.08347656 -11.1959375 -65.16695312 -11.391875 -64.22265625 -11.59375 C-42.18533371 -14.37178823 -19.36771172 -11.19023344 0 0 Z " fill="#2E1026" transform="translate(664,286)"/>
<path d="M0 0 C4.90104028 2.26879618 8.82778629 5.6151234 13 9 C13.73734375 9.57621094 14.4746875 10.15242188 15.234375 10.74609375 C22.85208511 17.02665262 31.04943596 26.40663603 34 36 C34 37.32 34 38.64 34 40 C33.07719238 39.97643433 33.07719238 39.97643433 32.13574219 39.95239258 C29.34058879 39.88992074 26.54558245 39.85097132 23.75 39.8125 C22.78191406 39.78736328 21.81382812 39.76222656 20.81640625 39.73632812 C19.88183594 39.72666016 18.94726562 39.71699219 17.984375 39.70703125 C16.69611816 39.68346558 16.69611816 39.68346558 15.38183594 39.65942383 C12.46607188 40.07634581 11.1075748 40.96924503 9 43 C8.58282721 45.58462162 8.58282721 45.58462162 9 48 C10.06979172 49.30350992 10.06979172 49.30350992 12.59204102 49.02172852 C13.71795654 48.97459717 14.84387207 48.92746582 16.00390625 48.87890625 C17.21884766 48.83056641 18.43378906 48.78222656 19.68554688 48.73242188 C20.96494141 48.67634766 22.24433594 48.62027344 23.5625 48.5625 C24.84576172 48.51029297 26.12902344 48.45808594 27.45117188 48.40429688 C30.63433391 48.2741304 33.81722004 48.13914999 37 48 C47.09723562 79.44113483 52.53248499 119.46030814 38.41015625 150.42578125 C36.06276579 154.71090677 33.2314704 158.35133758 30 162 C29.52433594 162.60328125 29.04867187 163.2065625 28.55859375 163.828125 C24.77092808 168.21904813 20.22460547 170.71707572 15.125 173.3125 C14.46508057 173.65031494 13.80516113 173.98812988 13.12524414 174.33618164 C5.0885471 178.22700262 -2.75533066 179.37262449 -11.625 179.3125 C-12.93150513 179.30512817 -12.93150513 179.30512817 -14.2644043 179.29760742 C-32.59152502 178.96976699 -49.46665055 172.41325838 -66 165 C-66 169.0351411 -57.63575624 175.34893852 -54.890625 178.16015625 C-39.9478123 192.28841713 -24.86763304 195.55074547 -5 195 C-4.51578776 196.98364258 -4.03157552 198.96728516 -3.54736328 200.95092773 C-2.15645269 206.15784681 -0.00609425 209.14870663 4.0625 212.5625 C9.50534919 217.14172367 9.50534919 217.14172367 10 221 C4.62115494 233.44818428 -6.96712062 242.58807614 -19.125 248 C-35.60121665 253.79900134 -51.93888879 248.91774545 -67.05957031 241.6796875 C-78.03615375 236.17159834 -86.17634032 228.43728948 -94 219 C-94.598125 218.30519531 -95.19625 217.61039063 -95.8125 216.89453125 C-96.204375 216.26933594 -96.59625 215.64414062 -97 215 C-96.67 214.01 -96.34 213.02 -96 212 C-95.02804687 211.60425781 -94.05609375 211.20851563 -93.0546875 210.80078125 C-89.67243355 209.24526223 -89.67243355 209.24526223 -88.7578125 205.54296875 C-88.5132555 204.09642933 -88.30467075 202.64352295 -88.125 201.1875 C-87.95750244 200.00619507 -87.95750244 200.00619507 -87.78662109 198.80102539 C-85.37429717 179.79702655 -86.92059629 161.41689641 -92.44921875 143.1015625 C-93 141 -93 141 -93 138 C-93.66 138.33 -94.32 138.66 -95 139 C-103.73831342 139.91024098 -111.46838111 136.09461478 -118.18359375 130.6953125 C-125.54402569 123.82557602 -129.07928016 116.51860014 -129.4375 106.5 C-129.24678097 99.00994363 -127.28546927 94.68542639 -122.5 89.0625 C-120.04426628 87.03651968 -119.09177368 86.27280356 -116 86 C-114.9275 85.896875 -113.855 85.79375 -112.75 85.6875 C-106.01926398 86.24839467 -101.02508641 89.60304939 -96 94 C-86.32133137 84.32133137 -84.21606132 72.12257217 -83 59 C-81.741875 58.84144531 -80.48375 58.68289063 -79.1875 58.51953125 C-56.17469 55.45145782 -33.31672093 48.86695426 -18 30 C-10.99290386 20.5705111 -5.30970092 10.4562546 0 0 Z " fill="#FDB5AD" transform="translate(671,323)"/>
<path d="M0 0 C12.165065 6.36002896 22.53365004 14.53380226 32.5012207 23.95678711 C33.23856445 24.6412793 33.9759082 25.32577148 34.7355957 26.03100586 C40.89881634 31.94288949 46.05599555 38.52251662 51.2019043 45.31201172 C52.51559888 46.97498812 53.91682808 48.52538416 55.3371582 50.09741211 C57.5012207 52.95678711 57.5012207 52.95678711 57.8059082 55.33569336 C57.59321289 56.41657227 57.59321289 56.41657227 57.3762207 57.51928711 C57.24989258 58.24245117 57.12356445 58.96561523 56.9934082 59.71069336 C56.66101867 61.22755036 56.31696167 62.74189081 55.9621582 64.25366211 C53.7471725 77.24323929 55.57685055 89.44642575 62.7277832 100.57397461 C70.69200626 111.27480294 82.66002614 116.3885482 95.5012207 118.95678711 C93.75968771 122.95439694 91.11298156 126.25330432 88.5012207 129.70678711 C71.10167313 153.14285375 57.89404216 179.99543982 49.5012207 207.95678711 C46.00646852 204.5121389 42.66620952 200.97532696 39.3762207 197.33178711 C35.6530402 193.22688851 31.83652315 189.27115622 27.8762207 185.39428711 C22.65650128 180.21899083 18.02334944 174.7451119 13.5012207 168.95678711 C12.28112305 167.40991211 12.28112305 167.40991211 11.03637695 165.83178711 C-19.72178276 126.56402834 -46.95705682 75.4122305 -46.8112793 24.33178711 C-46.83544922 22.62635742 -46.83544922 22.62635742 -46.86010742 20.88647461 C-46.86496306 12.41824822 -46.12558542 4.24723711 -41.6237793 -3.10571289 C-30.82673602 -12.95007588 -11.35613462 -5.65211694 0 0 Z " fill="#FEDCE8" transform="translate(403.498779296875,450.043212890625)"/>
<path d="M0 0 C2.85552763 1.2979671 4.88108294 2.69873873 7.125 4.875 C14.47756804 11.38409162 23.97078561 13.37279214 33.515625 13.27734375 C43.59906642 12.47473799 53.06932201 7.29887026 60 0 C63.17833021 1.46580526 65.82343563 3.28523374 68.625 5.375 C79.64445839 13.18790994 89.7535028 14.80504844 103 13 C110.8990592 11.16557381 116.35018302 7.76313709 122 2 C125.87778063 3.25457609 128.34701335 5.13659449 131.42578125 7.7578125 C138.40979142 13.26876842 143.63615546 12 153 12 C153 28.83 153 45.66 153 63 C156.63 63 160.26 63 164 63 C165.53266582 66.06533164 165.10276471 69.26754272 165.0625 72.625 C165.05798828 73.33140625 165.05347656 74.0378125 165.04882812 74.765625 C165.03703875 76.51045275 165.01910324 78.255237 165 80 C138.30586933 80.04666185 111.61174475 80.08196026 84.91758156 80.10362434 C72.52381657 80.11394944 60.13007688 80.12803325 47.73632812 80.15087891 C36.93752952 80.17077512 26.13874923 80.18370746 15.3399328 80.18817699 C9.61880691 80.19079078 3.89773343 80.19695976 -1.8233757 80.21146011 C-7.20276633 80.22498455 -12.58208271 80.22923311 -17.96148872 80.22621536 C-19.94087311 80.22676784 -21.92025985 80.23077575 -23.89962959 80.23841095 C-26.5921452 80.24829189 -29.28437666 80.24599414 -31.97689819 80.24050903 C-33.16462627 80.24924756 -33.16462627 80.24924756 -34.37634885 80.25816262 C-39.77175758 80.22824242 -39.77175758 80.22824242 -42 78 C-42.265625 75.03125 -42.265625 75.03125 -42.25 71.5 C-42.25515625 70.3346875 -42.2603125 69.169375 -42.265625 67.96875 C-42 65 -42 65 -40 63 C-36.37 63 -32.74 63 -29 63 C-29 46.5 -29 30 -29 13 C-25.04 13 -21.08 13 -17 13 C-10.68574684 10.6785834 -3.12210845 6.24421691 0 0 Z " fill="#FEB9C7" transform="translate(868,316)"/>
<path d="M0 0 C0.73871415 -0.00226556 1.47742829 -0.00453111 2.23852772 -0.00686532 C4.72104088 -0.01320993 7.20349951 -0.01237564 9.6860199 -0.0115509 C11.46331859 -0.01454224 13.24061663 -0.01794471 15.01791382 -0.02172852 C19.85296762 -0.0305786 24.68800373 -0.03290715 29.52306485 -0.0335443 C33.56093309 -0.03449335 37.5987972 -0.03817188 41.63666385 -0.0417164 C51.16874299 -0.04986595 60.70081268 -0.0523003 70.2328949 -0.05158997 C80.05584937 -0.05099007 89.87874876 -0.06152304 99.7016893 -0.07733363 C108.13920619 -0.09042892 116.57670513 -0.09577298 125.0142321 -0.09513456 C130.05145478 -0.09488001 135.0886286 -0.09770674 140.12584114 -0.10831261 C144.86920618 -0.11802621 149.61247601 -0.11805044 154.3558445 -0.11079597 C156.09159739 -0.10975395 157.8273563 -0.1120902 159.56309891 -0.11815643 C180.15879853 -0.18543991 180.15879853 -0.18543991 186.79710388 3.13371277 C188.32738728 9.63009529 188.01959607 16.34725062 188.03733826 22.98356628 C188.04709189 25.19349646 188.0781873 27.40251393 188.10960388 29.61222839 C188.11613089 31.02693647 188.12138254 32.44165112 188.12522888 33.85636902 C188.13457458 35.13262146 188.14392029 36.4088739 188.15354919 37.72380066 C187.50894483 43.89036857 184.15175009 47.09980613 179.55491638 50.84074402 C175.12329301 54.10044921 171.2454965 54.69733959 165.79710388 54.13371277 C160.81380239 51.81390001 157.55284825 49.18596328 153.79710388 45.13371277 C152.86897888 44.24683777 151.94085388 43.35996277 150.98460388 42.44621277 C148.79710388 40.13371277 148.79710388 40.13371277 148.79710388 38.13371277 C148.13710388 38.13371277 147.47710388 38.13371277 146.79710388 38.13371277 C146.54186951 38.87621277 146.28663513 39.61871277 146.02366638 40.38371277 C142.88365754 47.42373259 135.60917454 52.7992328 128.79710388 56.13371277 C124.97165339 57.47732737 120.99433552 57.35409333 116.98460388 57.38371277 C116.2981781 57.40433777 115.61175232 57.42496277 114.90452576 57.44621277 C105.80200364 57.51510603 99.39804021 52.98128136 92.79710388 47.13371277 C86.79710388 41.02305703 86.79710388 41.02305703 86.79710388 38.13371277 C85.80710388 39.12371277 85.80710388 39.12371277 84.79710388 40.13371277 C84.33690857 40.58746277 83.87671326 41.04121277 83.40257263 41.50871277 C82.25417259 42.67108362 81.13464816 43.86226717 80.03538513 45.07121277 C73.70203207 51.85419536 66.28620253 56.60381315 56.87913513 57.37199402 C45.35059334 57.63369329 39.17175669 54.86816122 30.74241638 47.13371277 C28.79710388 45.13371277 28.79710388 45.13371277 27.16429138 42.88371277 C26.71311951 42.30621277 26.26194763 41.72871277 25.79710388 41.13371277 C25.13710388 41.13371277 24.47710388 41.13371277 23.79710388 41.13371277 C22.72849393 42.30000729 21.71680409 43.51877209 20.73460388 44.75871277 C16.52861666 49.65263578 11.96012708 54.14792022 5.50413513 55.67668152 C-0.40684314 56.05311215 -4.81218308 53.99787995 -9.20289612 50.13371277 C-12.76463406 46.78680934 -15.50262891 43.93130582 -15.96339417 38.91423035 C-15.9958202 37.36924176 -15.99478879 35.82327823 -15.96461487 34.27824402 C-15.96798355 33.45418564 -15.97135223 32.63012726 -15.974823 31.78109741 C-15.97452564 30.05067154 -15.95941758 28.32019066 -15.93019104 26.5900116 C-15.89033487 23.94214371 -15.90955728 21.29924709 -15.93531799 18.65129089 C-15.92776254 16.96442255 -15.91681274 15.27756525 -15.90211487 13.59074402 C-15.90909897 12.80214493 -15.91608307 12.01354584 -15.92327881 11.2010498 C-15.82323334 7.31328441 -15.57665029 5.52489408 -12.84669495 2.66764832 C-8.49832282 0.14471711 -4.88738686 -0.01092795 0 0 Z " fill="#FED4E1" transform="translate(844.2028961181641,263.8662872314453)"/>
<path d="M0 0 C13.41789132 8.55473467 25.20371254 19.72717369 35.1953125 32.0546875 C36.73229577 33.94821234 38.30416938 35.81472429 39.9296875 37.6328125 C42.79465997 40.93500968 45.10182857 43.6518179 45.375 48.125 C44.80891414 54.70291765 42.92013144 61.17037432 41.31689453 67.55957031 C40.1244001 72.4202109 39.03807806 77.30538784 37.9375 82.1875 C37.50530431 84.09507383 37.07302074 86.00262776 36.640625 87.91015625 C36.32282245 89.31508286 36.00507559 90.72002207 35.6875 92.125 C35.3575 91.465 35.0275 90.805 34.6875 90.125 C31.997495 89.43207408 29.34697059 88.84765483 26.625 88.3125 C0.05302743 82.70547309 -27.50030582 71.4223674 -46.3125 51.125 C-46.90417969 50.526875 -47.49585938 49.92875 -48.10546875 49.3125 C-60.94883488 35.79839715 -66.68252315 20.02608483 -66.84375 1.46484375 C-65.97655283 -3.98702082 -63.4811772 -7.00422091 -59.125 -10.25 C-41.65787307 -17.98082099 -15.42649427 -8.81857227 0 0 Z " fill="#FEDCE8" transform="translate(396.3125,643.875)"/>
<path d="M0 0 C16.32673097 2.31067328 31.58975438 7.3184448 47 13 C48.12664062 13.41121094 49.25328125 13.82242188 50.4140625 14.24609375 C56.25467514 16.52094153 61.61831663 19.37503189 67 22.5625 C67.63591064 22.93874512 68.27182129 23.31499023 68.92700195 23.70263672 C72.36253075 25.80158976 75.44141341 27.86637754 78 31 C77.75 33.75 77.75 33.75 77 36 C71.55007376 36.22142557 66.94089372 35.46957209 61.6875 34.0625 C60.97271484 33.88009766 60.25792969 33.69769531 59.52148438 33.50976562 C54.32662671 32.16331336 54.32662671 32.16331336 52 31 C58.67235147 42.65550004 68.89277315 50.19671635 79.73828125 57.67578125 C84.03446912 60.68196097 88.06063723 63.59095584 91 68 C91.25 71.0625 91.25 71.0625 91 74 C90.34 74.66 89.68 75.32 89 76 C82.63209394 75.91276841 79.05002863 73.37361968 74.1875 69.6875 C72.6967802 68.59824892 71.20453911 67.51107738 69.7109375 66.42578125 C68.94233398 65.8632666 68.17373047 65.30075195 67.38183594 64.72119141 C63.41528428 61.85483335 59.37289588 59.10612708 55.3125 56.375 C54.57088623 55.86670654 53.82927246 55.35841309 53.06518555 54.8347168 C49.14313278 52.2016646 45.61986966 50.2368155 41 49 C47.82678123 54.92992958 54.85172919 60.46314373 62.1875 65.75 C62.92274902 66.28004639 63.65799805 66.81009277 64.41552734 67.35620117 C68.89001426 70.55518496 73.42749701 73.62989526 78.0480957 76.61425781 C79.95025631 77.96468478 81.52688894 79.18900338 83 81 C82.875 84.0625 82.875 84.0625 82 87 C78.40852958 89.39431361 77.24406417 89.48092783 73 89 C70.02324788 87.90350209 67.28414691 86.45069303 64.5 84.9375 C63.68990479 84.50574463 62.87980957 84.07398926 62.04516602 83.62915039 C52.22060921 78.24275344 43.07930514 71.79903907 33.94506836 65.33178711 C32.04390443 63.96515645 32.04390443 63.96515645 30 63 C35.18134867 72.36250029 43.5530883 77.72759803 52.90917969 82.34887695 C59.02714912 85.37668018 59.02714912 85.37668018 61 88 C61.3125 90.5625 61.3125 90.5625 61 93 C58.61334964 95.38665036 57.96548475 95.34629584 54.6875 95.4375 C28.83272889 94.80870013 1.82472572 70.26262144 -16 54 C-17.83241586 52.35314524 -19.6657304 50.70728981 -21.5 49.0625 C-23.71359925 47.07656523 -25.89724608 45.10275392 -28 43 C-27.64388923 39.82355716 -26.37437959 37.87782169 -24.41015625 35.41796875 C-23.87769287 34.74040527 -23.34522949 34.0628418 -22.79663086 33.36474609 C-21.93823608 32.28700928 -21.93823608 32.28700928 -21.0625 31.1875 C-16.65284429 25.54065535 -12.39608524 19.84828355 -8.4375 13.875 C-8.04506104 13.28485107 -7.65262207 12.69470215 -7.24829102 12.08666992 C-4.66365078 8.14393196 -2.30545117 4.10903542 0 0 Z " fill="#FCB6AD" transform="translate(634,856)"/>
<path d="M0 0 C0.125 7.75 0.125 7.75 -1 10 C-0.401875 9.34 0.19625 8.68 0.8125 8 C3 6 3 6 6 6 C5.67 7.32 5.34 8.64 5 10 C6.65 10.33 8.3 10.66 10 11 C10.94923268 19.38488871 7.83977934 25.15847801 2.66552734 31.68261719 C-4.37091279 40.06636104 -12.26963195 47.12187336 -21.07519531 53.58300781 C-23.11525333 55.08484656 -25.13139377 56.61585693 -27.1484375 58.1484375 C-36.01080119 64.79620203 -45.12323009 70.61409726 -54.83227539 75.95483398 C-57.23660705 77.27832144 -59.61919009 78.63478214 -62 80 C-62.70406982 80.3714917 -63.40813965 80.7429834 -64.13354492 81.12573242 C-66.93167338 82.78028722 -68.66258383 83.89210905 -69.63305664 87.07861328 C-69.91283441 89.51722025 -69.97042434 91.85866857 -69.9375 94.3125 C-69.95361328 95.14845703 -69.96972656 95.98441406 -69.98632812 96.84570312 C-70.02149046 98.89683911 -70.0149114 100.94861684 -70 103 C-70.96035156 102.76925781 -71.92070313 102.53851562 -72.91015625 102.30078125 C-77.60206818 101.18015924 -82.30048227 100.0882186 -87 99 C-87.89364258 98.79149414 -88.78728516 98.58298828 -89.70800781 98.36816406 C-103.73115128 95.11835621 -117.70470008 92.69383589 -132 91 C-132 90.67 -132 90.34 -132 90 C-130.02 90 -128.04 90 -126 90 C-125.96261719 89.15179687 -125.92523437 88.30359375 -125.88671875 87.4296875 C-125.39803773 78.71008506 -124.43203688 70.41930323 -122 62 C-121.82887695 61.36400879 -121.65775391 60.72801758 -121.48144531 60.07275391 C-120.11558604 55.35572013 -118.43935316 51.62704647 -115 48 C-111.42013219 46.5616439 -107.73280263 46.17484752 -103.89648438 46.0559082 C-97.02849537 45.72937598 -91.94624551 43.27058467 -85.89405823 40.27110291 C-77.38958778 36.10259368 -68.53716949 33.16663235 -59.5625 30.1875 C-57.89358074 29.62393293 -56.22495971 29.05948193 -54.55664062 28.49414062 C-46.74370638 25.85647913 -38.92125573 23.29660008 -31 21 C-31.66 23.64 -32.32 26.28 -33 29 C-32.74089844 28.39414062 -32.48179688 27.78828125 -32.21484375 27.1640625 C-28.29659399 19.37549264 -23.01633874 15.92689577 -15.85546875 11.47265625 C-11.21453004 8.57452218 -7.13960791 5.16621442 -2.9765625 1.6171875 C-1 0 -1 0 0 0 Z " fill="#FDB5AD" transform="translate(1057,431)"/>
<path d="M0 0 C0.79404944 0.00223072 1.58809888 0.00446144 2.40621042 0.00675976 C3.24348752 0.00519977 4.08076461 0.00363978 4.94341373 0.00203252 C7.77099594 -0.00198108 10.5985252 0.00121354 13.42610788 0.00434887 C15.44431194 0.00299499 17.46251575 0.00121513 19.48071909 -0.00096118 C24.97849169 -0.00553708 30.47624562 -0.00374532 35.97401857 -0.0005821 C41.71378618 0.0019407 47.45355213 -0.00039581 53.1933198 -0.00196826 C62.83423256 -0.0037902 72.47513768 -0.00138304 82.11604929 0.00337231 C93.27969221 0.00881498 104.44331687 0.00705234 115.60695934 0.00154591 C125.17294725 -0.00298456 134.73892965 -0.0036361 144.30491829 -0.00101542 C150.02653633 0.00054772 155.74814578 0.0007401 161.46976328 -0.00255191 C166.84751161 -0.00542966 172.22523628 -0.00345672 177.60298204 0.00234234 C179.58278282 0.00367046 181.56258557 0.00327496 183.54238558 0.00107968 C186.23294244 -0.0016298 188.92342222 0.0017468 191.61397409 0.00675976 C192.40802353 0.00452904 193.20207297 0.00229832 194.02018452 0 C199.39594242 0.01959357 199.39594242 0.01959357 200.51009226 1.13374341 C200.58322792 3.66423743 200.60256753 6.16679177 200.57259226 8.69624341 C200.56808054 9.40716137 200.56356882 10.11807934 200.55892038 10.85054028 C200.5471009 12.61164354 200.52916489 14.37270376 200.51009226 16.13374341 C173.81596159 16.18040526 147.12183701 16.21570366 120.42767382 16.23736775 C108.03390883 16.24769284 95.64016914 16.26177666 83.24642038 16.28462231 C72.44762178 16.30451852 61.64884148 16.31745086 50.85002506 16.32192039 C45.12889917 16.32453418 39.40782569 16.33070316 33.68671656 16.34520352 C28.30732593 16.35872796 22.92800955 16.36297651 17.54860353 16.35995877 C15.56921915 16.36051124 13.5898324 16.36451915 11.61046267 16.37215436 C8.91794706 16.3820353 6.2257156 16.37973755 3.53319407 16.37425244 C2.34546599 16.38299096 2.34546599 16.38299096 1.13374341 16.39190602 C-4.26166532 16.36198583 -4.26166532 16.36198583 -6.48990774 14.13374341 C-6.72037649 11.12983716 -6.72037649 11.12983716 -6.67740774 7.57124341 C-6.66773977 5.80587231 -6.66773977 5.80587231 -6.65787649 4.00483716 C-6.36923175 -0.92897404 -4.44739631 0.01620987 0 0 Z " fill="#FED2DE" transform="translate(832.4899077415466,379.8662565946579)"/>
<path d="M0 0 C-0.41418613 5.70577103 -1.77086791 8.65681803 -5.375 13.0625 C-5.82198242 13.61848877 -6.26896484 14.17447754 -6.72949219 14.74731445 C-7.6727463 15.92014624 -8.62141931 17.08863847 -9.57519531 18.25292969 C-11.84161037 21.03196775 -14.04129898 23.86255919 -16.25 26.6875 C-17.1716114 27.85828047 -18.09349455 29.02884706 -19.015625 30.19921875 C-22.96902641 35.22610432 -26.88815354 40.27964093 -30.80981445 45.33129883 C-33.89911932 49.30820406 -37.00074969 53.27424379 -40.12915039 57.22045898 C-41.94660576 59.51881596 -43.74997913 61.82795664 -45.54980469 64.14013672 C-46.53395342 65.40229918 -47.52171143 66.66165404 -48.51269531 67.91845703 C-58.09919812 80.12401361 -66.76690541 92.90860936 -75.375 105.8125 C-75.93285187 106.64707733 -76.49070374 107.48165466 -77.06546021 108.34152222 C-84.00057106 118.73277347 -90.68449452 129.22099425 -97 140 C-97.54688477 140.92176025 -98.09376953 141.84352051 -98.65722656 142.79321289 C-108.39400131 159.25065172 -116.96086259 176.20797338 -124 194 C-124.2983374 194.72219727 -124.5966748 195.44439453 -124.90405273 196.18847656 C-127.35332018 202.16972227 -129.44543709 208.18853025 -131.3125 214.375 C-131.60954834 215.35758789 -131.90659668 216.34017578 -132.21264648 217.35253906 C-145.31234186 261.45243435 -156.49898058 309.10805873 -156.0625 355.375 C-156.05347656 356.64085937 -156.04445313 357.90671875 -156.03515625 359.2109375 C-156.02355469 360.13132812 -156.01195312 361.05171875 -156 362 C-155.56171875 360.95585938 -155.1234375 359.91171875 -154.671875 358.8359375 C-144.76543406 335.66747585 -131.94648294 314.58099648 -117.03271484 294.32421875 C-115.24390821 291.87441258 -113.96753176 289.90259529 -113 287 C-111.89785156 286.34064453 -111.89785156 286.34064453 -110.7734375 285.66796875 C-107.46995155 283.68122438 -105.14833858 281.17108213 -102.625 278.3125 C-102.1815625 277.82072266 -101.738125 277.32894531 -101.28125 276.82226562 C-99.32249255 274.6424484 -97.38382534 272.44721945 -95.47517395 270.22332764 C-91.09099658 265.13333022 -86.4783002 260.33223224 -81.72265625 255.58984375 C-80.95247665 254.81870743 -80.18229706 254.04757111 -79.38877869 253.25306702 C-77.77058627 251.63419847 -76.15114788 250.01657449 -74.53051758 248.40014648 C-72.06932768 245.94431282 -69.61352191 243.48318635 -67.15820312 241.02148438 C-65.57584133 239.43978347 -63.99316933 237.85839283 -62.41015625 236.27734375 C-61.68594986 235.55111313 -60.96174347 234.82488251 -60.21559143 234.0766449 C-56.20318834 230.08237349 -52.10261657 226.25829417 -47.79612732 222.58204651 C-45.95094578 220.95679256 -44.22111254 219.25541185 -42.5 217.5 C-39.55735676 214.51106799 -36.47644293 211.75347702 -33.30078125 209.015625 C-30.49226335 206.55519166 -27.74561404 204.03000334 -25 201.5 C-17.6926457 194.78176574 -10.251846 188.33541328 -2.515625 182.11328125 C0.01387158 180.05595181 0.01387158 180.05595181 2.1875 177.77734375 C4.14616436 175.85667073 5.32214063 175.38255134 8 175 C7.74023864 178.80799093 7.33309627 180.62124202 4.77734375 183.52734375 C3.84019531 184.32269531 2.90304687 185.11804688 1.9375 185.9375 C1.43871338 186.36861084 0.93992676 186.79972168 0.42602539 187.24389648 C-1.03925754 188.5076883 -2.51938113 189.75421046 -4 191 C-5.35667531 192.18463315 -6.71116707 193.37177631 -8.0625 194.5625 C-8.69285156 195.11035156 -9.32320312 195.65820312 -9.97265625 196.22265625 C-12.33489173 198.29359487 -14.66795853 200.39512848 -17 202.5 C-19.98062721 205.18983431 -22.97245233 207.86310364 -26 210.5 C-33.49238626 217.03143892 -40.82709682 223.74045463 -48.1640625 230.4453125 C-49.66956657 231.80151038 -51.17901543 233.15381544 -52.71589661 234.47434998 C-57.98671124 239.00570725 -62.94048547 243.79473828 -67.84765625 248.71484375 C-69.07094887 249.93670128 -69.07094887 249.93670128 -70.31895447 251.1832428 C-72.03198008 252.89559193 -73.74375965 254.60918842 -75.4543457 256.32397461 C-78.05503552 258.93002015 -80.66101956 261.53068522 -83.26757812 264.13085938 C-84.94042486 265.80436699 -86.61296134 267.47818482 -88.28515625 269.15234375 C-89.05513443 269.9202977 -89.82511261 270.68825165 -90.61842346 271.47947693 C-95.27943833 276.16049657 -99.70969686 280.97792827 -104 286 C-104.49520645 286.56649765 -104.9904129 287.1329953 -105.50062561 287.71665955 C-107.59331976 290.14656948 -108.9744059 291.92321769 -110 295 C-110.680625 295.66 -111.36125 296.32 -112.0625 297 C-133.315904 317.64961411 -147.5352425 350.57571817 -157 378 C-158.32 378 -159.64 378 -161 378 C-160.98889694 377.38327423 -160.97779388 376.76654846 -160.96635437 376.13113403 C-160.85517315 369.67415953 -160.78009029 363.21745982 -160.7253418 356.75976562 C-160.70029916 354.3543797 -160.666255 351.94906911 -160.62280273 349.54394531 C-160.5617012 346.07337794 -160.53368637 342.60382228 -160.51171875 339.1328125 C-160.47300911 337.53688766 -160.47300911 337.53688766 -160.43351746 335.90872192 C-160.43075181 328.43683752 -162.17024609 323.38031876 -166 317 C-166.33 316.34 -166.66 315.68 -167 315 C-166.01 315 -165.02 315 -164 315 C-163.67 314.34 -163.34 313.68 -163 313 C-162.01 315.97 -161.02 318.94 -160 322 C-159.34 322 -158.68 322 -158 322 C-157.98582031 321.18144531 -157.97164062 320.36289062 -157.95703125 319.51953125 C-156.28144177 276.54292531 -142.91473704 231.85416761 -128.81274414 191.45654297 C-127.96928403 189.05504026 -127.96928403 189.05504026 -127.51342773 186.73486328 C-127.34399658 186.1623584 -127.17456543 185.58985352 -127 185 C-126.34 184.67 -125.68 184.34 -125 184 C-123.8849723 181.82720279 -122.8643889 179.66689333 -121.875 177.4375 C-121.24256829 176.0513143 -120.60839773 174.66592087 -119.97265625 173.28125 C-119.64539551 172.56710937 -119.31813477 171.85296875 -118.98095703 171.1171875 C-109.21681827 150.04336685 -97.72905262 130.07355732 -84.83740234 110.77099609 C-82.51475563 107.26820042 -80.24879753 103.73075219 -77.98242188 100.19140625 C-68.17101406 84.9080225 -57.43621713 70.41994673 -46.23046875 56.13671875 C-42.72880069 51.66879093 -39.32660397 47.13302295 -35.93359375 42.58203125 C-33.01014883 38.67819874 -30.01146885 34.83611042 -27 31 C-25.78376953 29.44539062 -25.78376953 29.44539062 -24.54296875 27.859375 C-22.20883201 24.87823492 -19.86723982 21.90305395 -17.52197266 18.93066406 C-16.47332385 17.60042428 -15.42621317 16.26897101 -14.38037109 14.93652344 C-12.75791912 12.87088616 -11.12960525 10.80999648 -9.5 8.75 C-8.74360229 7.78392822 -8.74360229 7.78392822 -7.97192383 6.79833984 C-2.57259632 0 -2.57259632 0 0 0 Z " fill="#FECCD9" transform="translate(1105,589)"/>
<path d="M0 0 C4.09411859 1.3647062 5.3221142 4.12456969 7.5 7.625 C8.08587891 8.53185547 8.08587891 8.53185547 8.68359375 9.45703125 C13.33208297 16.79757484 16.06978035 23.14866671 15 32 C13.16349256 37.12288918 9.96811713 41.51594143 5 44 C0.8227786 44.76264623 -2.61812718 44.85399271 -6.30078125 42.578125 C-10.46936869 39.01158218 -13.33153607 35.99853821 -14.546875 30.546875 C-15.42809083 18.41321084 -7.37438157 8.94229915 0 0 Z " fill="#FED9E5" transform="translate(875,171)"/>
<path d="M0 0 C7.79567627 3.15579893 12.00103262 13.06596587 15.1171875 20.40234375 C16.93931566 25.76391555 16.6559413 30.02404589 14.375 35.25 C12.19898194 39.08825408 10.11206126 41.17241722 6 43 C1.65032839 43.81960754 -2.17568498 44.00755747 -6.12890625 41.82421875 C-10.42482578 38.35340276 -12.51101704 35.0185294 -13.40625 29.4921875 C-13.83065366 17.64425193 -6.73579885 9.18699192 0 0 Z " fill="#FED9E5" transform="translate(980,171)"/>
<path d="M0 0 C7.04452737 6.42295143 13.19683391 14.82728062 14.28125 24.51171875 C14.46878302 29.73920175 14.05148945 33.58060149 11 38 C6.10931599 42.4135441 3.02249467 43.40770949 -3.453125 43.3515625 C-7.62161229 42.77615781 -9.19423148 41.08634537 -12 38 C-15.42070894 32.66701974 -14.7498965 26.05273603 -14 20 C-12.53160229 16.50175839 -10.4152854 13.90036364 -8 11 C-6.53266114 8.98569612 -5.07447255 6.96469826 -3.625 4.9375 C-2.41845142 3.29035783 -1.21075842 1.64405014 0 0 Z " fill="#FEDAE5" transform="translate(931,162)"/>
<path d="M0 0 C7.97139641 3.38231958 11.38397281 13.47053799 15.18579102 20.78662109 C18.51776542 27.17330571 22.05308398 33.4324402 25.625 39.6875 C29.75456111 46.9320852 33.68568769 54.19164282 37.33203125 61.69140625 C39.24843654 65.49280034 41.32567031 69.17985414 43.4375 72.875 C46.6160087 78.45427542 49.66354946 84.08251755 52.5625 89.8125 C52.90917725 90.48845215 53.25585449 91.1644043 53.61303711 91.86083984 C55.06515896 94.76805844 56 96.70497327 56 100 C56.99 100.495 56.99 100.495 58 101 C57.34 101.66 56.68 102.32 56 103 C55.34 103 54.68 103 54 103 C54 102.34 54 101.68 54 101 C53.34 101 52.68 101 52 101 C51.65332275 100.351521 51.30664551 99.70304199 50.94946289 99.03491211 C42.87277438 83.84471061 42.87277438 83.84471061 34.1875 69 C30.7683577 63.44910352 27.80529774 57.75935095 24.94360352 51.90380859 C22.23011348 46.37744804 19.24151555 41.0469072 16.1484375 35.72265625 C13.18929897 30.62574234 10.35272395 25.46043033 7.50048828 20.30322266 C7.1032959 19.58569824 6.70610352 18.86817383 6.296875 18.12890625 C5.9143457 17.43434326 5.53181641 16.73978027 5.13769531 16.02416992 C4.38630905 14.68731509 3.61502123 13.36143043 2.82324219 12.0480957 C0.25127797 7.7700164 -0.40932427 5.01422233 0 0 Z " fill="#FECBD8" transform="translate(412,515)"/>
<path d="M0 0 C1.32 0.33 2.64 0.66 4 1 C6.97 1 9.94 1 13 1 C13 15.19 13 29.38 13 44 C8.71 44 4.42 44 0 44 C0 29.48 0 14.96 0 0 Z " fill="#FEDAE5" transform="translate(924,212)"/>
<path d="M0 0 C4.29 0 8.58 0 13 0 C13 11.22 13 22.44 13 34 C8.71 34 4.42 34 0 34 C0 22.78 0 11.56 0 0 Z " fill="#FDD6E2" transform="translate(975,222)"/>
<path d="M0 0 C0.02465392 4.53897705 0.04283789 9.07791543 0.05493164 13.61694336 C0.0599714 15.16219766 0.0668032 16.70744716 0.07543945 18.25268555 C0.08752076 20.46925029 0.09323173 22.68575218 0.09765625 24.90234375 C0.10281754 25.5971434 0.10797882 26.29194305 0.11329651 27.00779724 C0.11349277 28.6722933 0.06189129 30.33665499 0 32 C-0.495 32.495 -0.495 32.495 -1 33 C-4.63 33 -8.26 33 -12 33 C-12 22.44 -12 11.88 -12 1 C-3 0 -3 0 0 0 Z " fill="#FEDAE5" transform="translate(883,223)"/>
<path d="M0 0 C1.80078125 1.25390625 1.80078125 1.25390625 3 3 C2.6875 5.6875 2.6875 5.6875 2 8 C1.14019531 8.20753906 0.28039062 8.41507812 -0.60546875 8.62890625 C-8.56926242 10.70452968 -14.98689929 13.31347457 -22.0625 17.609375 C-25.32667581 19.15464972 -27.43212235 19.35263907 -31 19 C-32 18 -32 18 -32.625 15.375 C-31.7625668 10.71786071 -29.67650344 9.41967435 -25.8984375 6.75 C-17.63971508 1.76360156 -9.68140947 -2.69809772 0 0 Z " fill="#2C0F24" transform="translate(649,372)"/>
<path d="M0 0 C0.66 0 1.32 0 2 0 C6.1135711 9.75003872 8.92700543 19.58319044 11.44775391 29.83886719 C11.91002463 31.64789478 12.43759894 33.44006665 12.98046875 35.2265625 C15.12777511 42.70685038 15.27839168 50.01915345 15.3125 57.75 C15.31805908 58.81621582 15.32361816 59.88243164 15.3293457 60.98095703 C15.2717987 67.28358371 14.60107461 72.90188318 13 79 C12.01 78.67 11.02 78.34 10 78 C10.0314209 77.3287207 10.0628418 76.65744141 10.09521484 75.96582031 C11.02295516 52.81537207 6.84681971 31.82241067 0.38598633 9.68164062 C-0.65267618 6.01825561 -1.12275385 3.63434771 0 0 Z " fill="#13071A" transform="translate(766,620)"/>
<path d="M0 0 C2.69990662 1.79993774 4.5418865 3.083773 6 6 C6.4697612 9.08020635 6.56621977 11.92934661 6 15 C2.80652662 18.27136298 0.99173717 18.9652022 -3.5625 19.125 C-8.01223197 17.66872408 -9.54134115 15.94875513 -12 12 C-12.73490789 7.99883483 -12.38814018 6.58221026 -10.125 3.1875 C-6.82233621 -0.21230096 -4.68601439 -0.45941318 0 0 Z " fill="#2B0F24" transform="translate(644,398)"/>
<path d="M0 0 C2.85670088 2.19746222 3.82095936 3.85746231 4.37890625 7.41796875 C4.56416503 11.46378137 4.53387181 14.13759169 2.375 17.625 C-0.72904866 19.42208081 -2.46656253 19.58890625 -6 19 C-8.84780619 16.76793569 -9.84997666 15.45007001 -11 12 C-11.41011236 4.48127341 -11.41011236 4.48127341 -9 1 C-5.87139505 -0.56430248 -3.44397075 -0.35627284 0 0 Z " fill="#2A0E22" transform="translate(698,385)"/>
<path d="M0 0 C3.90714478 1.84232112 7.33095318 4.21308575 10.87890625 6.66015625 C14.42392424 8.89945859 17.22961626 9.12027836 21.32421875 9.09765625 C22.86625977 9.09282227 22.86625977 9.09282227 24.43945312 9.08789062 C25.51130859 9.07951172 26.58316406 9.07113281 27.6875 9.0625 C28.77095703 9.05798828 29.85441406 9.05347656 30.97070312 9.04882812 C33.64719085 9.03703743 36.32356777 9.02058063 39 9 C39.125 11.875 39.125 11.875 39 15 C35.80738136 18.19261864 31.74707158 17.48948168 27.45776367 17.51074219 C18.12946947 17.26512382 10.99372625 12.93049084 4 7 C0 2.45945946 0 2.45945946 0 0 Z " fill="#2E1126" transform="translate(646,447)"/>
<path d="M0 0 C3.5784005 1.19280017 3.87504662 1.96678229 5.7421875 5.12109375 C6.25136719 5.97509766 6.76054688 6.82910156 7.28515625 7.70898438 C7.80980469 8.60939453 8.33445312 9.50980469 8.875 10.4375 C9.39191406 11.30310547 9.90882813 12.16871094 10.44140625 13.06054688 C21.31088545 31.44557277 21.31088545 31.44557277 20 38 C16.81294073 41.18705927 14.40087305 42.97198254 9.875 43.0625 C8.451875 43.0315625 8.451875 43.0315625 7 43 C7.125 41.1875 7.125 41.1875 8 39 C11.0625 37.25 11.0625 37.25 14 36 C13.43270346 30.14434591 11.12302399 25.33492234 8.6875 20.0625 C8.29626953 19.19431641 7.90503906 18.32613281 7.50195312 17.43164062 C5.72437374 13.53157838 3.90228638 9.74186227 1.70703125 6.05859375 C0 3 0 3 0 0 Z " fill="#260E20" transform="translate(673,399)"/>
<path d="M0 0 C0.99 0.33 1.98 0.66 3 1 C-3.94845397 12.28101938 -12.52470329 20.95313285 -23 29 C-23.99128906 29.78375 -24.98257812 30.5675 -26.00390625 31.375 C-26.97199219 32.1175 -27.94007812 32.86 -28.9375 33.625 C-29.81277344 34.29789062 -30.68804688 34.97078125 -31.58984375 35.6640625 C-34 37 -34 37 -36.15063477 36.58349609 C-36.76092529 36.39094238 -37.37121582 36.19838867 -38 36 C-36.58460938 34.78376953 -36.58460938 34.78376953 -35.140625 33.54296875 C-22.77857129 22.89534863 -10.83392451 12.22015501 0 0 Z " fill="#2C1124" transform="translate(1058,440)"/>
<path d="M0 0 C0.66 0 1.32 0 2 0 C5.15189638 7.47066503 7.72492845 15.00080283 9.875 22.8125 C10.1021167 23.59987549 10.3292334 24.38725098 10.56323242 25.19848633 C11.97959325 30.53129519 12.00317918 34.56920902 11 40 C8.56858955 38.46900855 7.20774092 37.52459711 6.13452148 34.81445312 C5.96509033 33.97849609 5.79565918 33.14253906 5.62109375 32.28125 C5.42338379 31.3536084 5.22567383 30.4259668 5.02197266 29.47021484 C4.82909668 28.49004395 4.6362207 27.50987305 4.4375 26.5 C4.01890186 24.50218938 3.59835034 22.50478697 3.17578125 20.5078125 C2.97678223 19.55293945 2.7777832 18.59806641 2.57275391 17.61425781 C1.7125293 13.68787883 0.59197804 9.85458304 -0.6171875 6.0234375 C-1.05569551 3.70560946 -0.73354423 2.2207298 0 0 Z " fill="#260F24" transform="translate(766,620)"/>
<path d="M0 0 C5.04662665 2.73867892 9.48010453 5.76713606 13.9375 9.375 C15.15702583 10.34831599 16.37707528 11.32097628 17.59765625 12.29296875 C18.17918457 12.75751465 18.76071289 13.22206055 19.35986328 13.70068359 C22.52077945 16.20476157 25.75875417 18.60147809 29 21 C28.67 22.32 28.34 23.64 28 25 C25.3122619 23.10450405 22.62485398 21.20854049 19.9375 19.3125 C19.18533203 18.78205078 18.43316406 18.25160156 17.65820312 17.70507812 C16.15863927 16.64694432 14.65985458 15.58770539 13.16186523 14.52734375 C11.76602465 13.54119144 10.36729112 12.55911539 8.96508789 11.58203125 C5.33572581 9.03650607 2.45658613 6.73401092 0 3 C0 2.01 0 1.02 0 0 Z " fill="#3A142E" transform="translate(563,790)"/>
<path d="M0 0 C5.91632121 0.12325669 8.85310635 1.91460835 13.12890625 5.95703125 C15.89008297 8.97184425 18.47803465 12.17429475 20 16 C19.67 16.99 19.34 17.98 19 19 C18.54109375 18.59007812 18.0821875 18.18015625 17.609375 17.7578125 C16.99578125 17.21898437 16.3821875 16.68015625 15.75 16.125 C15.14671875 15.59132813 14.5434375 15.05765625 13.921875 14.5078125 C12.04958283 12.92688373 12.04958283 12.92688373 9.81640625 11.953125 C8 11 8 11 7.1875 8.625 C5.41758083 4.71254709 2.78811117 3.89405559 -1 2 C-0.67 1.34 -0.34 0.68 0 0 Z " fill="#260D21" transform="translate(556,422)"/>
<path d="M0 0 C0.99 0.33 1.98 0.66 3 1 C2.51172287 8.47834967 1.66594452 15.68925318 0 23 C-0.61875 23.12375 -1.2375 23.2475 -1.875 23.375 C-4.19120832 23.87197356 -4.19120832 23.87197356 -6 26 C-5.28784747 20.46598134 -4.21753929 15.0686358 -3 9.625 C-2.82210937 8.80644531 -2.64421875 7.98789062 -2.4609375 7.14453125 C-1.12276786 1.12276786 -1.12276786 1.12276786 0 0 Z " fill="#290F24" transform="translate(557,658)"/>
<path d="M0 0 C0.6290625 0.19335938 1.258125 0.38671875 1.90625 0.5859375 C7.24216385 2.2092125 12.57759268 3.69460565 18 5 C16.52186113 8.22973344 14.68253503 10.88997098 12.5 13.6875 C11.8915625 14.47511719 11.283125 15.26273438 10.65625 16.07421875 C9 18 9 18 7 19 C7.226875 17.80375 7.45375 16.6075 7.6875 15.375 C8.21349534 11.05269048 7.45648415 8.68472622 5 5 C2.43802877 2.18643108 2.43802877 2.18643108 0 0 Z " fill="#FAF4F6" transform="translate(481,564)"/>
<path d="M0 0 C0.125 2.875 0.125 2.875 0 6 C-2 8 -2 8 -4.71484375 8.265625 C-5.77832031 8.26046875 -6.84179688 8.2553125 -7.9375 8.25 C-9.52884766 8.25773437 -9.52884766 8.25773437 -11.15234375 8.265625 C-14 8 -14 8 -17 6 C-14.69 6 -12.38 6 -10 6 C-10 5.34 -10 4.68 -10 4 C-10.77085937 3.95101563 -11.54171875 3.90203125 -12.3359375 3.8515625 C-13.84027344 3.73941406 -13.84027344 3.73941406 -15.375 3.625 C-16.87160156 3.52058594 -16.87160156 3.52058594 -18.3984375 3.4140625 C-21 3 -21 3 -23 1 C-19.91675903 0.83159521 -16.83339379 0.66558138 -13.75 0.5 C-12.87730469 0.45230469 -12.00460937 0.40460938 -11.10546875 0.35546875 C-10.26113281 0.31035156 -9.41679688 0.26523437 -8.546875 0.21875 C-7.38430176 0.1559082 -7.38430176 0.1559082 -6.19824219 0.09179688 C-4.13373418 0.00558463 -2.0663073 0 0 0 Z " fill="#20091D" transform="translate(685,456)"/>
<path d="M0 0 C5.45985629 1.83745164 9.81226677 5.16512 14.47265625 8.45507812 C17.9550785 10.85056252 20.67533244 12.59248325 25 13 C25 13.66 25 14.32 25 15 C21.87709365 14.51421457 19.00419641 14.0013988 16 13 C16.66 13.556875 17.32 14.11375 18 14.6875 C20 17 20 17 20.25 19.75 C20.1675 20.4925 20.085 21.235 20 22 C19.690625 21.1646875 19.690625 21.1646875 19.375 20.3125 C16.00650306 14.6473006 9.42426445 11.15746378 4.07421875 7.55078125 C2 6 2 6 1 4 C5.75 5.875 5.75 5.875 8 7 C7.13375 6.36771484 7.13375 6.36771484 6.25 5.72265625 C5.5075 5.17480469 4.765 4.62695312 4 4.0625 C3.2575 3.51722656 2.515 2.97195313 1.75 2.41015625 C1.1725 1.94480469 0.595 1.47945312 0 1 C0 0.67 0 0.34 0 0 Z " fill="#1F0B1B" transform="translate(698,919)"/>
<path d="M0 0 C0.05868218 3.9791034 0.0938239 7.95809353 0.125 11.9375 C0.15013672 13.61295898 0.15013672 13.61295898 0.17578125 15.32226562 C0.21430039 21.88977896 -0.29052161 27.65339322 -2 34 C-2.99 33.67 -3.98 33.34 -5 33 C-5.05422947 31.5629191 -5.09289723 30.12524538 -5.125 28.6875 C-5.14820313 27.88699219 -5.17140625 27.08648438 -5.1953125 26.26171875 C-5 24 -5 24 -3 21 C-2.72521627 18.77514259 -2.72521627 18.77514259 -2.8046875 16.33203125 C-2.81113281 15.43935547 -2.81757812 14.54667969 -2.82421875 13.62695312 C-2.84097656 12.69818359 -2.85773437 11.76941406 -2.875 10.8125 C-2.88853516 9.40194336 -2.88853516 9.40194336 -2.90234375 7.96289062 C-2.92590944 5.64167032 -2.95880884 3.32096356 -3 1 C-1 0 -1 0 0 0 Z " fill="#2E1026" transform="translate(781,665)"/>
<path d="M0 0 C0.99 0.33 1.98 0.66 3 1 C2.67 1.66 2.34 2.32 2 3 C3.918125 3.185625 3.918125 3.185625 5.875 3.375 C9.75 3.75 9.75 3.75 12 6 C11.05640625 5.94779297 11.05640625 5.94779297 10.09375 5.89453125 C5.60717209 5.75263647 1.88203864 5.79170797 -2.3125 7.5 C-5.63291171 8.85067595 -7.50193502 9.32794359 -11 9 C-11 8.34 -11 7.68 -11 7 C-8.69921875 5.23828125 -8.69921875 5.23828125 -5.6875 3.3125 C-4.70136719 2.66925781 -3.71523438 2.02601563 -2.69921875 1.36328125 C-1.80847656 0.91339844 -0.91773438 0.46351563 0 0 Z " fill="#F7BCB4" transform="translate(638,366)"/>
<path d="M0 0 C4.21654356 1.48635116 7.62478605 3.61249159 11.3125 6.125 C12.38113281 6.84945312 13.44976563 7.57390625 14.55078125 8.3203125 C15.76314453 9.15175781 15.76314453 9.15175781 17 10 C16.01 10.33 15.02 10.66 14 11 C13.67 11.66 13.34 12.32 13 13 C12.5875 12.525625 12.175 12.05125 11.75 11.5625 C10.1393131 9.86711818 10.1393131 9.86711818 8.09375 9.58203125 C5.61350574 8.89256036 4.5442902 7.94647642 2.75 6.125 C2.22921875 5.61195313 1.7084375 5.09890625 1.171875 4.5703125 C0 3 0 3 0 0 Z " fill="#2D1125" transform="translate(664,919)"/>
<path d="M0 0 C0.99 0.33 1.98 0.66 3 1 C2.0980639 2.48819457 1.17785871 3.96532813 0.25 5.4375 C-0.26046875 6.26121094 -0.7709375 7.08492188 -1.296875 7.93359375 C-3.30187364 10.36626411 -4.05743317 10.26435829 -7 11 C-9.6607255 13.29742099 -9.6607255 13.29742099 -12.25 16.0625 C-13.58804687 17.44115234 -13.58804687 17.44115234 -14.953125 18.84765625 C-15.62859375 19.55792969 -16.3040625 20.26820313 -17 21 C-17.66 20.67 -18.32 20.34 -19 20 C-18.13117188 19.14277344 -17.26234375 18.28554688 -16.3671875 17.40234375 C-7.87037258 8.99175314 -7.87037258 8.99175314 0 0 Z " fill="#0E0315" transform="translate(1058,440)"/>
<path d="M0 0 C5.89966296 0.72749222 11.37230273 2.60513968 17 4.4375 C17.97195313 4.75009766 18.94390625 5.06269531 19.9453125 5.38476562 C24.63898246 6.89709934 29.32567772 8.42873288 34 10 C34 10.33 34 10.66 34 11 C28.70715156 10.36874285 23.7876071 9.22174423 18.6875 7.6875 C17.94636963 7.46747314 17.20523926 7.24744629 16.44165039 7.02075195 C10.82868309 5.32321042 5.37116551 3.36225707 0 1 C0 0.67 0 0.34 0 0 Z " fill="#E5517A" transform="translate(822,713)"/>
<path d="M0 0 C0.99 0 1.98 0 3 0 C4.01351664 1.65848177 5.01120795 3.32665961 6 5 C8.57183314 7.27537692 8.57183314 7.27537692 11 9 C10.67 9.33 10.34 9.66 10 10 C10.99 10.99 11.98 11.98 13 13 C7.9839395 11.79614548 3.9210028 10.53846595 0 7 C-0.375 3.25 -0.375 3.25 0 0 Z " fill="#341329" transform="translate(533,767)"/>
<path d="M0 0 C0.33 0 0.66 0 1 0 C1.17015625 0.90621094 1.3403125 1.81242187 1.515625 2.74609375 C2.81747141 9.28994939 4.27188227 15.10321108 7.21484375 21.08984375 C8.31544485 23.76742554 8.29221812 26.15087336 8 29 C6.11608215 25.73454239 5.50712033 22.71888239 5 19 C4.01 18.67 3.02 18.34 2 18 C-0.16863489 14.07204211 -0.21433256 10.60946168 -0.125 6.1875 C-0.10695313 5.02605469 -0.08890625 3.86460937 -0.0703125 2.66796875 C-0.04710937 1.78753906 -0.02390625 0.90710938 0 0 Z " fill="#1B0A15" transform="translate(759,495)"/>
<path d="M0 0 C4.34863652 0.56444825 7.17827655 2.15427964 10.8125 4.5625 C12.27623047 5.52349609 12.27623047 5.52349609 13.76953125 6.50390625 C14.50558594 6.99761719 15.24164062 7.49132812 16 8 C15.67 8.66 15.34 9.32 15 10 C8.49488185 8.78029035 4.57163228 5.73787346 0 1 C0 0.67 0 0.34 0 0 Z " fill="#35182C" transform="translate(674,904)"/>
<path d="M0 0 C0.99 0 1.98 0 3 0 C2.85870713 2.41700987 2.71213513 4.83350429 2.5625 7.25 C2.50352539 8.27287109 2.50352539 8.27287109 2.44335938 9.31640625 C2.23333528 12.64448041 1.98065998 15.80255402 1 19 C1 18.01 1 17.02 1 16 C0.34 16 -0.32 16 -1 16 C-2.49697302 10.31150252 -1.3348044 5.58190932 0 0 Z " fill="#321229" transform="translate(542,725)"/>
<path d="M0 0 C4.03119232 7.43304237 4.32210597 14.80294301 3 23 C0.50156445 19.25234668 1 17.47053531 1 13 C0.52069064 10.38954655 -0.04672273 7.81640889 -0.66015625 5.234375 C-1 3 -1 3 0 0 Z " fill="#35212E" transform="translate(810,972)"/>
<path d="M0 0 C0.66 0 1.32 0 2 0 C5.57142857 7.28571429 5.57142857 7.28571429 4 12 C3.01 12 2.02 12 1 12 C0.63896464 10.18885568 0.28634496 8.37603177 -0.0625 6.5625 C-0.25972656 5.55316406 -0.45695313 4.54382813 -0.66015625 3.50390625 C-0.77230469 2.67761719 -0.88445313 1.85132813 -1 1 C-0.67 0.67 -0.34 0.34 0 0 Z " fill="#34152D" transform="translate(766,620)"/>
<path d="M0 0 C3.66193239 3.06406588 7.18020298 6.12978472 10.5 9.5625 C13.73418247 12.8626862 17.17074336 15.42111288 21 18 C20.34 18.66 19.68 19.32 19 20 C16.58221947 17.75119447 14.16597654 15.50074339 11.75 13.25 C11.06808594 12.61578125 10.38617187 11.9815625 9.68359375 11.328125 C7.78387844 9.55751656 5.89075872 7.78016316 4 6 C3.18015625 5.23171875 2.3603125 4.4634375 1.515625 3.671875 C0 2 0 2 0 0 Z " fill="#FBCABC" transform="translate(605,491)"/>
<path d="M0 0 C1.32 0.33 2.64 0.66 4 1 C4 1.66 4 2.32 4 3 C5.782129 4.44074715 7.62660276 5.80510649 9.5 7.125 C10.5209375 7.84945312 11.541875 8.57390625 12.59375 9.3203125 C13.78484375 10.15175781 13.78484375 10.15175781 15 11 C14.01 11.495 14.01 11.495 13 12 C12.54109375 11.65066406 12.0821875 11.30132813 11.609375 10.94140625 C10.99578125 10.48636719 10.3821875 10.03132812 9.75 9.5625 C9.14671875 9.11003906 8.5434375 8.65757812 7.921875 8.19140625 C5.92758265 6.95510713 4.25755053 6.55505891 2 6 C1.34 5.34 0.68 4.68 0 4 C0 2.68 0 1.36 0 0 Z " fill="#351228" transform="translate(695,917)"/>
<path d="M0 0 C0.33 0.99 0.66 1.98 1 3 C1.66 3 2.32 3 3 3 C2.67 5.97 2.34 8.94 2 12 C1.34 11.34 0.68 10.68 0 10 C-0.66 11.32 -1.32 12.64 -2 14 C-1.85970581 11.8537974 -1.71261836 9.70803782 -1.5625 7.5625 C-1.48128906 6.36753906 -1.40007813 5.17257812 -1.31640625 3.94140625 C-1 1 -1 1 0 0 Z " fill="#1E0A1D" transform="translate(540,738)"/>
<path d="M0 0 C5.49404762 10.56547619 5.49404762 10.56547619 5 16 C1.95682976 12.34819571 0.04410128 8.25394051 -2 4 C-2.33 3.34 -2.66 2.68 -3 2 C-2.01 2 -1.02 2 0 2 C0 1.34 0 0.68 0 0 Z " fill="#FECBDA" transform="translate(941,902)"/>
<path d="M0 0 C3.15133488 1.83827868 6.11964908 3.75972706 9 6 C8.67 7.32 8.34 8.64 8 10 C6.65555841 9.09970429 5.32468562 8.17911978 4 7.25 C3.2575 6.73953125 2.515 6.2290625 1.75 5.703125 C1.1725 5.14109375 0.595 4.5790625 0 4 C0 2.68 0 1.36 0 0 Z " fill="#451833" transform="translate(583,805)"/>
<path d="M0 0 C6.6 0.6 6.6 0.6 9 3 C8.67 3.99 8.34 4.98 8 6 C4.22454612 4.90931332 1.52956528 4.0916909 -1 1 C-0.67 0.67 -0.34 0.34 0 0 Z " fill="#2E1226" transform="translate(556,422)"/>
<path d="M0 0 C0.99 0.33 1.98 0.66 3 1 C2.67 3.97 2.34 6.94 2 10 C1.67 9.01 1.34 8.02 1 7 C0.01 7 -0.98 7 -2 7 C-1.125 1.125 -1.125 1.125 0 0 Z " fill="#220C21" transform="translate(557,658)"/>
<path d="M0 0 C2.83022097 3.99560608 1.76210446 7.42737323 1 12 C-0.32 11.01 -1.64 10.02 -3 9 C-2.4140625 2.84765625 -2.4140625 2.84765625 -2 1 C-1.34 0.67 -0.68 0.34 0 0 Z " fill="#3A152D" transform="translate(776,648)"/>
<path d="M0 0 C0.43183594 0.57621094 0.86367188 1.15242187 1.30859375 1.74609375 C2.38242914 3.17704761 3.45777404 4.60687092 4.53515625 6.03515625 C5.03917969 6.70417969 5.54320312 7.37320313 6.0625 8.0625 C6.56910156 8.73410156 7.07570313 9.40570312 7.59765625 10.09765625 C8.77792898 11.69875045 9.896642 13.344963 11 15 C10.01 15 9.02 15 8 15 C8 14.34 8 13.68 8 13 C7.34 13 6.68 13 6 13 C4.4921875 11.171875 4.4921875 11.171875 2.875 8.75 C2.33617187 7.96109375 1.79734375 7.1721875 1.2421875 6.359375 C0 4 0 4 0 0 Z " fill="#EFDCE4" transform="translate(461,543)"/>
<path d="M0 0 C-1 3 -1 3 -3 4 C-3 4.99 -3 5.98 -3 7 C-4.98 7 -6.96 7 -9 7 C-8.875 5.1875 -8.875 5.1875 -8 3 C-2.96428571 0 -2.96428571 0 0 0 Z " fill="#230C1F" transform="translate(689,435)"/>
<path d="M0 0 C1.423125 0.433125 1.423125 0.433125 2.875 0.875 C7.52270466 2.2110958 12.25164268 3.10192035 17 4 C12.93463505 6.29009641 10.58143848 6.10586446 6 5 C2.5625 3 2.5625 3 0 1 C0 0.67 0 0.34 0 0 Z " fill="#F3BAB0" transform="translate(653,451)"/>
<path d="M0 0 C0.99 0.33 1.98 0.66 3 1 C1.35 3.64 -0.3 6.28 -2 9 C-2.33 8.01 -2.66 7.02 -3 6 C-3.66 5.67 -4.32 5.34 -5 5 C-3.35 3.35 -1.7 1.7 0 0 Z " fill="#381829" transform="translate(1058,440)"/>
<path d="M0 0 C0.66 0.33 1.32 0.66 2 1 C2 1.66 2 2.32 2 3 C0.9275 2.979375 -0.145 2.95875 -1.25 2.9375 C-4.14790424 2.9857984 -6.28612141 3.13155885 -9 4 C-9 3.01 -9 2.02 -9 1 C-5.77390955 -0.07536348 -3.37822416 -0.14375422 0 0 Z " fill="#3B192C" transform="translate(646,371)"/>
<path d="M0 0 C0.33 0 0.66 0 1 0 C0.67 2.97 0.34 5.94 0 9 C-0.66 8.67 -1.32 8.34 -2 8 C-2.66 8.66 -3.32 9.32 -4 10 C-3.67 7.36 -3.34 4.72 -3 2 C-2.01 2.33 -1.02 2.66 0 3 C0 2.01 0 1.02 0 0 Z " fill="#18071A" transform="translate(555,679)"/>
<path d="M0 0 C1.32014582 3.96043746 0.27727477 6.09721599 -1 10 C-1.33 10.66 -1.66 11.32 -2 12 C-2.66 12 -3.32 12 -4 12 C-3.71640113 10.5608866 -3.42278601 9.12374482 -3.125 7.6875 C-2.96257812 6.88699219 -2.80015625 6.08648438 -2.6328125 5.26171875 C-2 3 -2 3 0 0 Z " fill="#24111D" transform="translate(512,875)"/>
<path d="M0 0 C0.68359375 1.796875 0.68359375 1.796875 1 4 C-0.21484375 5.703125 -0.21484375 5.703125 -1.9375 7.25 C-2.50339844 7.77078125 -3.06929687 8.2915625 -3.65234375 8.828125 C-4.09707031 9.21484375 -4.54179688 9.6015625 -5 10 C-5.66 9.67 -6.32 9.34 -7 9 C-6.02180976 7.68677212 -5.0424189 6.37443848 -4.0625 5.0625 C-3.51722656 4.33160156 -2.97195313 3.60070312 -2.41015625 2.84765625 C-1 1 -1 1 0 0 Z " fill="#280E22" transform="translate(1052,449)"/>
<path d="M0 0 C0.99 0 1.98 0 3 0 C3.66 2.97 4.32 5.94 5 9 C4.01 9.33 3.02 9.66 2 10 C0.89131683 6.67395049 0.45822468 3.46941546 0 0 Z " fill="#361F2E" transform="translate(791,903)"/>
<path d="M0 0 C-4.56327794 3.53286034 -8.49633208 3.32374517 -14 3 C-14 2.67 -14 2.34 -14 2 C-12.23225581 1.46877637 -10.46065917 0.95035927 -8.6875 0.4375 C-7.70136719 0.14746094 -6.71523438 -0.14257812 -5.69921875 -0.44140625 C-3 -1 -3 -1 0 0 Z " fill="#F9BACA" transform="translate(857,316)"/>
<path d="M0 0 C3.75376152 1.25125384 4.24073289 2.5652404 6 6 C6 6.66 6 7.32 6 8 C5.01 8 4.02 8 3 8 C0.89229241 5.11165997 0 3.61537605 0 0 Z " fill="#3C1D2F" transform="translate(673,399)"/>
<path d="M0 0 C2.46800047 1.15173355 4.04783565 2.04783565 6 4 C5.625 6.125 5.625 6.125 5 8 C2.5 5.6875 2.5 5.6875 0 3 C0 2.01 0 1.02 0 0 Z " fill="#37152A" transform="translate(664,919)"/>
<path d="M0 0 C0.99 0.66 1.98 1.32 3 2 C1.87548273 4.9719385 0.77706209 7.33440687 -1 10 C-1.33 7.03 -1.66 4.06 -2 1 C-1.34 0.67 -0.68 0.34 0 0 Z " fill="#341128" transform="translate(552,686)"/>
<path d="M0 0 C3.36591866 1.44253657 5.51047079 3.33264727 8 6 C7.01 6.66 6.02 7.32 5 8 C0 2.25 0 2.25 0 0 Z " fill="#54283B" transform="translate(646,447)"/>
<path d="M0 0 C1.65 0.33 3.3 0.66 5 1 C4.67 1.99 4.34 2.98 4 4 C3.01 4.33 2.02 4.66 1 5 C0.34 5.66 -0.32 6.32 -1 7 C-0.67 4.69 -0.34 2.38 0 0 Z " fill="#431932" transform="translate(552,677)"/>
<path d="M0 0 C0.66 0.33 1.32 0.66 2 1 C1.01 2.98 0.02 4.96 -1 7 C-1.66 7 -2.32 7 -3 7 C-3.66 8.32 -4.32 9.64 -5 11 C-4.46884894 6.48521602 -2.63379708 3.65333143 0 0 Z " fill="#1A0914" transform="translate(530,319)"/>
<path d="M0 0 C1.125 1.625 1.125 1.625 2 4 C1.125 7.25 1.125 7.25 0 10 C-0.33 10 -0.66 10 -1 10 C-1.9765625 3.9453125 -1.9765625 3.9453125 -2 2 C-1.34 1.34 -0.68 0.68 0 0 Z " fill="#290F24" transform="translate(777,661)"/>
<path d="M0 0 C2.97 0 5.94 0 9 0 C7.515 1.485 7.515 1.485 6 3 C2.3125 2.6875 2.3125 2.6875 -1 2 C-0.67 1.34 -0.34 0.68 0 0 Z " fill="#381A2C" transform="translate(638,414)"/>
<path d="M0 0 C0.99 0.33 1.98 0.66 3 1 C1.25 3.0625 1.25 3.0625 -1 5 C-3.25 4.75 -3.25 4.75 -5 4 C-2.6875 1.9375 -2.6875 1.9375 0 0 Z " fill="#421E34" transform="translate(1025,472)"/>
<path d="M0 0 C0.33 0.66 0.66 1.32 1 2 C-0.4375 4.625 -0.4375 4.625 -2 7 C-4 3.25 -4 3.25 -4 1 C-2.68 0.67 -1.36 0.34 0 0 Z " fill="#F9BFB2" transform="translate(1025,452)"/>
<path d="M0 0 C2 2 2 2 2.125 4.625 C2.08375 5.40875 2.0425 6.1925 2 7 C2.66 7 3.32 7 4 7 C3.67 8.65 3.34 10.3 3 12 C0.97649676 8.96474514 0.67875982 7.80573798 0.375 4.3125 C0.30023437 3.50425781 0.22546875 2.69601562 0.1484375 1.86328125 C0.09945312 1.24839844 0.05046875 0.63351562 0 0 Z " fill="#1D081A" transform="translate(710,376)"/>
<path d="M0 0 C0.33 0 0.66 0 1 0 C1.33 4.29 1.66 8.58 2 13 C1.01 13.495 1.01 13.495 0 14 C-1.39151652 9.20699867 -0.68662689 4.84864218 0 0 Z " fill="#EC6E8F" transform="translate(966,193)"/>
<path d="M0 0 C3.125 -0.1875 3.125 -0.1875 6 0 C6 0.99 6 1.98 6 3 C3.36 3 0.72 3 -2 3 C-1.34 2.01 -0.68 1.02 0 0 Z " fill="#36142B" transform="translate(714,811)"/>
<path d="M0 0 C4.51617599 -0.07654536 8.59085217 -0.10228696 13 1 C13 1.33 13 1.66 13 2 C7.96488101 3.0070238 4.76052962 2.97387813 0 1 C0 0.67 0 0.34 0 0 Z " fill="#9D4564" transform="translate(685,538)"/>
<path d="M0 0 C4.43458973 1.3937282 6.87378374 3.60582235 10 7 C6.433255 7 5.89456323 6.36308045 3.3125 4.0625 C2.68988281 3.51722656 2.06726563 2.97195313 1.42578125 2.41015625 C0.95527344 1.94480469 0.48476563 1.47945313 0 1 C0 0.67 0 0.34 0 0 Z " fill="#F5C2B5" transform="translate(616,503)"/>
<path d="M0 0 C2.9719385 1.12451727 5.33440687 2.22293791 8 4 C7.01 4.99 6.02 5.98 5 7 C3.35 4.69 1.7 2.38 0 0 Z " fill="#39172C" transform="translate(602,486)"/>
<path d="M0 0 C2.97 0.495 2.97 0.495 6 1 C6.33 2.32 6.66 3.64 7 5 C6.01 5 5.02 5 4 5 C1.8125 2.5 1.8125 2.5 0 0 Z " fill="#3A162E" transform="translate(569,435)"/>
<path d="M0 0 C0 3 0 3 -1.3125 4.38671875 C-2.875 5.59114583 -4.4375 6.79557292 -6 8 C-6.66 7.67 -7.32 7.34 -8 7 C-5.36 4.69 -2.72 2.38 0 0 Z " fill="#E54A75" transform="translate(811,131)"/>
<path d="M0 0 C1.485 0.99 1.485 0.99 3 2 C2.67 3.98 2.34 5.96 2 8 C1.01 8 0.02 8 -1 8 C-0.67 5.36 -0.34 2.72 0 0 Z " fill="#36142C" transform="translate(535,758)"/>
<path d="M0 0 C0.66 0 1.32 0 2 0 C2.6875 1.8125 2.6875 1.8125 3 4 C1.5625 5.75 1.5625 5.75 0 7 C-0.38133299 5.0085944 -0.71325582 3.00720923 -1 1 C-0.67 0.67 -0.34 0.34 0 0 Z " fill="#471B35" transform="translate(766,620)"/>
<path d="M0 0 C-0.33 1.32 -0.66 2.64 -1 4 C-3.31 3.67 -5.62 3.34 -8 3 C-5.53387212 -0.1151089 -3.89156016 -0.31553191 0 0 Z " fill="#ECACA5" transform="translate(666,518)"/>
</svg>
