<?xml version="1.0" encoding="utf-8"?>
<!-- Generator: Adobe Illustrator 27.5.0, SVG Export Plug-In . SVG Version: 6.00 Build 0)  -->
<svg version="1.1" xmlns="http://www.w3.org/2000/svg" xmlns:xlink="http://www.w3.org/1999/xlink" x="0px" y="0px"
	 viewBox="0 0 500 500" style="enable-background:new 0 0 500 500;" xml:space="preserve">
<g id="BACKGROUND">
	<rect style="fill:none;" width="500" height="500"/>
</g>
<g id="OBJECTS">
	<g>
		<defs>
			<path id="SVGID_1_" d="M54.606,175.451c1.096-25.783,8.43-50.715,24.732-73.663c61.31-86.3,214.983-84.114,300.017-35.524
				c25.533,14.59,47.497,36.96,56.296,64.628c7.106,22.347,5.272,46.28,5.144,69.655c-0.144,26.356,5.496,45.904,16.315,69.555
				c8.659,18.93,10.479,41.432,6.974,61.665c-7.604,43.902-40.314,79.432-79.566,99.582
				c-62.386,32.025-161.372,32.417-237.479,13.969c-38.465-9.324-75.199-28.196-93.878-54.744
				c-14.862-21.124-17.164-45.283-12.419-67.531c3.815-17.888,12.838-33.873,20.381-50.742c6.046-13.521,3.489-25.275-0.13-39.974
				C56.287,213.21,53.813,194.108,54.606,175.451z"/>
		</defs>
		<clipPath id="SVGID_00000127010717280459490990000011744852811246406591_">
			<use xlink:href="#SVGID_1_"  style="overflow:visible;"/>
		</clipPath>
		<g style="clip-path:url(#SVGID_00000127010717280459490990000011744852811246406591_);">
			<g>
				<rect x="11.028" y="-0.982" style="fill:#F2D1C8;" width="485.164" height="485.165"/>
				<path style="opacity:0.46;fill:#E8BBB1;" d="M242.377-0.954c0,0,76.506,116.792-57.318,161.034S11.028,354.275,11.028,354.275
					V-0.982L242.377-0.954z"/>
				<path style="opacity:0.46;fill:#E8BBB1;" d="M350.378,484.182c0,0-84.325-116.549,36.662-160.679
					c81.453-31.692,109.153-176.635,109.153-176.635v337.315H350.378z"/>
				<path style="opacity:0.46;fill:#E8BBB1;" d="M207.152,484.182c0,0-11.704-192.765-125.152-129.114
					c-34.611,20.387-30.418,100.003-70.972,72.694c0,56.42,0,56.42,0,56.42H207.152z"/>
			</g>
			
				<ellipse transform="matrix(0.4741 -0.8805 0.8805 0.4741 99.2323 353.5608)" style="opacity:0.3;fill:#FFFFFF;" cx="345.595" cy="93.709" rx="22.009" ry="22.009"/>
		</g>
	</g>
	<g>
		<path style="fill:#FFFFFF;" d="M79.32,125.9h104.278l-15.154-4.981c0,0-1.951-9.678-7.052-9.678c-5.101,0-8.552,5.978-8.552,5.978
			s0.15-20.068-12.903-20.068c-13.054,0-15.904,19.641-15.904,19.641s-3.151-9.821-10.202-9.821c-7.052,0-9.753,12.525-9.753,12.525
			L79.32,125.9z"/>
		<path style="fill:#FFFFFF;" d="M314.676,159.796h104.277l-15.154-4.981c0,0-1.951-9.678-7.052-9.678
			c-5.101,0-8.552,5.978-8.552,5.978s0.15-20.068-12.903-20.068c-13.054,0-15.904,19.641-15.904,19.641s-3.151-9.821-10.202-9.821
			c-7.052,0-9.753,12.525-9.753,12.525L314.676,159.796z"/>
	</g>
	<g>
		<g>
			<path style="fill:#D66562;" d="M106.354,143.601c-6.089,5.814-10.679,16.418-6.071,35.722
				c7.974-13.199,17.492-9.73,25.682-18.629c0.403-0.438,0.827-1.059,1.235-1.82C134.22,145.805,117.084,133.356,106.354,143.601z"
				/>
			<path style="fill:#BA5050;" d="M106.354,143.601c6.074-5.8,14.199-4.324,18.835,0.419c-22.079,4.057-24.906,35.303-24.906,35.303
				C95.676,160.019,100.266,149.415,106.354,143.601z"/>
		</g>
		<g>
			<path style="fill:#D66562;" d="M174.54,80.537c2.318-3.832,3.199-9.915-1.852-19.186c-2.258,7.886-7.628,7.429-10.595,13.138
				c-0.146,0.281-0.277,0.659-0.381,1.106C159.926,83.281,170.456,87.29,174.54,80.537z"/>
			<path style="fill:#BA5050;" d="M174.54,80.537c-2.312,3.823-6.689,4.195-9.729,2.405c10.772-5.155,7.877-21.591,7.877-21.591
				C177.739,70.621,176.858,76.704,174.54,80.537z"/>
		</g>
		<g>
			<path style="fill:#D66562;" d="M368.563,101.559c-0.686,7.263-5.436,16.078-21.041,23.308c4.698-12.51-2.772-17.123-1.115-27.472
				c0.081-0.509,0.276-1.131,0.575-1.817C352.104,83.786,369.773,88.76,368.563,101.559z"/>
			<path style="fill:#BA5050;" d="M368.563,101.559c0.685-7.246-4.682-11.98-10.396-12.588
				c9.093,17.198-10.645,35.895-10.645,35.895C363.127,117.637,367.877,108.822,368.563,101.559z"/>
		</g>
	</g>
	<g>
		<g>
			<g>
				<g>
					<g>
						<path style="fill:#56221C;" d="M367.506,454.764l15.454,3.397c17.46-6.436,33.663-19.361,47.062-39.163
							c-42.75-6.816-129.979,24.781-129.979,24.781c24.092,16.948,50.206,22.914,74.451,16.972L367.506,454.764z"/>
						<g>
							<g>
								<path style="fill:#8E3535;" d="M463.116,338.403c-7.318,1.479-14.472,3.26-21.463,5.296l-1.402,9.582l-5.949-7.327
									c-69.742,22.497-121.872,70.664-147.25,108.521c0,0,38.856,5.948,82.477-13.214l-7.209-14.357l13.521,11.419
									c20.451-10.06,41.577-25.859,59.957-50.537l-9.081-13.942l14.312,6.557C449.132,368.388,456.607,354.502,463.116,338.403z"
									/>
								<path style="fill:#D66562;" d="M369.529,441.261l-7.209-14.357l13.521,11.419c20.451-10.06,41.577-25.859,59.957-50.537
									l-9.081-13.942l14.312,6.557c8.103-12.012,15.578-25.899,22.087-41.998c0,0-100.326,87.366-176.064,116.072
									C287.052,454.475,325.908,460.422,369.529,441.261z"/>
							</g>
							<path style="fill:none;stroke:#FEFEFE;stroke-width:0.7792;stroke-miterlimit:10;" d="M287.052,454.475
								c0,0,88.374-36.965,176.064-116.072"/>
							
								<line style="fill:none;stroke:#FEFEFE;stroke-width:0.7792;stroke-miterlimit:10;" x1="408.726" y1="355.641" x2="402.649" y2="387.034"/>
							
								<line style="fill:none;stroke:#FEFEFE;stroke-width:0.7792;stroke-miterlimit:10;" x1="377.456" y1="404.166" x2="408.532" y2="416.927"/>
							
								<line style="fill:none;stroke:#FEFEFE;stroke-width:0.7792;stroke-miterlimit:10;" x1="334.592" y1="430.444" x2="343.61" y2="394.796"/>
						</g>
					</g>
				</g>
				<path style="opacity:0.52;fill:#420A05;" d="M286.848,454.475c0,0,12.645,1.933,31.601,0.04c9.436,4.3,19.02,6.978,28.542,7.998
					c-13.385-22.99-12.47-51.775-11.752-61.038C314.433,419.09,298.037,437.784,286.848,454.475z"/>
			</g>
			<g>
				<path style="fill:none;stroke:#FFF6E7;stroke-width:3.5613;stroke-miterlimit:10;" d="M354.894,219.865
					c0,0-30.141,99.627-101.369,123.701"/>
				<g>
					<path style="fill:#FFF6E7;" d="M348.852,211.644c-1.351,4.333,1.066,8.941,5.399,10.292c4.333,1.351,8.941-1.066,10.292-5.399
						c1.351-4.333-1.066-8.941-5.399-10.292C354.811,204.893,350.203,207.311,348.852,211.644z"/>
					<g>
						<path style="fill:#56221C;" d="M365.58,185.607c5.901,11.25-3.193,29.576-3.193,29.576l-5.976-0.175l-5.016-3.253
							C351.395,211.756,354.33,191.508,365.58,185.607z"/>
						<path style="fill:#D66562;" d="M356.411,215.009l-3.536-1.103c-5.961-1.859-9.287-8.198-7.428-14.159l4.089-13.112
							C349.536,186.635,361.53,198.593,356.411,215.009z"/>
						<path style="fill:#D66562;" d="M356.411,215.009l3.536,1.103c5.961,1.859,12.301-1.466,14.16-7.428l4.089-13.112
							C378.195,195.572,361.53,198.593,356.411,215.009z"/>
					</g>
				</g>
			</g>
			<g>
				<path style="fill:none;stroke:#FFF6E7;stroke-width:3.5613;stroke-miterlimit:10;" d="M383.918,233.562
					c0,0-57.564,86.721-132.708,89.254"/>
				<g>
					<g>
						<path style="fill:#8E3535;" d="M378.324,221.364c5.155,1.551,8.452,5.737,7.365,9.35c-1.087,3.613-6.147,5.285-11.301,3.734
							c-5.154-1.551-8.452-5.737-7.365-9.35C368.109,221.485,373.169,219.813,378.324,221.364z"/>
						<path style="fill:#8E3535;" d="M381.954,219.413c-1.551,5.155,0.121,10.214,3.734,11.301s7.799-2.211,9.35-7.365
							c1.551-5.155-0.121-10.214-3.734-11.301C387.691,210.96,383.505,214.258,381.954,219.413z"/>
						<path style="fill:#8E3535;" d="M389.423,242.015c1.551-5.155-0.121-10.214-3.734-11.301s-7.799,2.211-9.35,7.365
							c-1.551,5.155,0.121,10.214,3.734,11.301C383.686,250.467,387.872,247.17,389.423,242.015z"/>
						<path style="fill:#8E3535;" d="M393.054,240.064c-5.155-1.551-8.452-5.737-7.365-9.35c1.087-3.613,6.147-5.285,11.301-3.734
							c5.155,1.551,8.452,5.737,7.365,9.35C403.268,239.942,398.209,241.614,393.054,240.064z"/>
					</g>
					<g>
						<path style="fill:#D66562;" d="M387.092,218.895c2.548,4.741,1.92,10.033-1.403,11.819c-3.323,1.786-8.083-0.609-10.632-5.351
							c-2.548-4.741-1.92-10.033,1.403-11.819C379.784,211.758,384.544,214.153,387.092,218.895z"/>
						<path style="fill:#D66562;" d="M391.039,220.082c-4.741,2.548-7.137,7.308-5.351,10.632c1.786,3.323,7.078,3.952,11.819,1.403
							c4.741-2.548,7.137-7.308,5.351-10.632C401.072,218.162,395.781,217.534,391.039,220.082z"/>
						<path style="fill:#D66562;" d="M380.338,241.346c4.741-2.548,7.137-7.308,5.351-10.632c-1.786-3.323-7.078-3.952-11.819-1.403
							c-4.741,2.548-7.137,7.308-5.351,10.632C370.305,243.266,375.597,243.894,380.338,241.346z"/>
						<path style="fill:#D66562;" d="M384.285,242.533c-2.548-4.741-1.92-10.033,1.403-11.819c3.323-1.786,8.083,0.609,10.632,5.351
							c2.548,4.741,1.92,10.033-1.403,11.819C391.594,249.67,386.834,247.274,384.285,242.533z"/>
					</g>
					<path style="fill:#F9F3E9;" d="M392.91,226.833c2.143,3.988,0.648,8.959-3.34,11.102c-3.988,2.143-8.959,0.648-11.102-3.34
						c-2.143-3.988-0.648-8.959,3.34-11.102C385.796,221.349,390.766,222.845,392.91,226.833z"/>
				</g>
			</g>
			<g>
				<path style="fill:none;stroke:#D66562;stroke-width:1.122;stroke-miterlimit:10;" d="M302.924,357.47
					c0,0,68.142-15.636,117.734-76.692"/>
				<g>
					<g>
						<path style="fill:#76AD9C;" d="M408.719,295.061c4.1-2.023,13.941-5.324,21.129,4.809c0.547,0.77,0.217,1.841-0.646,2.226
							c-8.655,3.853-17.246-1.745-20.751-4.534C407.596,296.881,407.74,295.545,408.719,295.061z"/>
						<path style="fill:#D66562;" d="M408.719,295.061c4.1-2.023,13.941-5.324,21.129,4.809c0.547,0.77,0.217,1.841-0.646,2.226
							c-8.655,3.853-17.246-1.745-20.751-4.534C407.596,296.881,407.74,295.545,408.719,295.061z"/>
						<path style="fill:#8E3535;" d="M409.873,296.055c0,0,8.411-0.601,11.368,1.05
							C424.197,298.755,409.873,296.055,409.873,296.055z"/>
					</g>
					<g>
						<path style="fill:#76AD9C;" d="M408.719,295.061c1.608-4.28,3.921-14.399-6.872-20.551c-0.821-0.468-1.854-0.034-2.151,0.863
							c-2.979,8.993,3.44,16.99,6.562,20.202C407.019,296.359,408.335,296.084,408.719,295.061z"/>
						<path style="fill:#D66562;" d="M408.719,295.061c1.608-4.28,3.921-14.399-6.872-20.551c-0.821-0.468-1.854-0.034-2.151,0.863
							c-2.979,8.993,3.44,16.99,6.562,20.202C407.019,296.359,408.335,296.084,408.719,295.061z"/>
						<path style="fill:#8E3535;" d="M407.617,294.011c0,0-0.233-8.429-2.168-11.208
							C403.514,280.024,407.617,294.011,407.617,294.011z"/>
					</g>
				</g>
				<g>
					<g>
						<path style="fill:#76AD9C;" d="M387.116,313.333c4.345-1.424,14.553-3.302,20.238,7.744c0.432,0.84-0.046,1.854-0.954,2.112
							c-9.112,2.593-16.827-4.163-19.903-7.419C385.747,314.976,386.078,313.673,387.116,313.333z"/>
						<path style="fill:#D66562;" d="M387.116,313.333c4.345-1.424,14.553-3.302,20.238,7.744c0.432,0.84-0.046,1.854-0.954,2.112
							c-9.112,2.593-16.827-4.163-19.903-7.419C385.747,314.976,386.078,313.673,387.116,313.333z"/>
						<path style="fill:#8E3535;" d="M388.118,314.479c0,0,8.411,0.593,11.106,2.644
							C401.918,319.175,388.118,314.479,388.118,314.479z"/>
					</g>
					<g>
						<path style="fill:#76AD9C;" d="M387.116,313.333c2.196-4.01,5.915-13.701-3.902-21.315c-0.746-0.579-1.83-0.295-2.251,0.551
							c-4.219,8.482,1.006,17.305,3.644,20.926C385.25,314.378,386.592,314.291,387.116,313.333z"/>
						<path style="fill:#D66562;" d="M387.116,313.333c2.196-4.01,5.915-13.701-3.902-21.315c-0.746-0.579-1.83-0.295-2.251,0.551
							c-4.219,8.482,1.006,17.305,3.644,20.926C385.25,314.378,386.592,314.291,387.116,313.333z"/>
						<path style="fill:#8E3535;" d="M386.173,312.138c0,0,0.96-8.378-0.563-11.402
							C384.087,297.711,386.173,312.138,386.173,312.138z"/>
					</g>
				</g>
				<g>
					<g>
						<path style="fill:#76AD9C;" d="M362.083,331.256c4.451-1.045,14.783-2.04,19.499,9.453c0.359,0.874-0.205,1.843-1.132,2.022
							c-9.301,1.8-16.408-5.592-19.193-9.101C360.578,332.775,361.02,331.505,362.083,331.256z"/>
						<path style="fill:#D66562;" d="M362.083,331.256c4.451-1.045,14.783-2.04,19.499,9.453c0.359,0.874-0.205,1.843-1.132,2.022
							c-9.301,1.8-16.408-5.592-19.193-9.101C360.578,332.775,361.02,331.505,362.083,331.256z"/>
						<path style="fill:#8E3535;" d="M362.983,332.484c0,0,8.329,1.313,10.837,3.589S362.983,332.484,362.983,332.484z"/>
					</g>
					<g>
						<path style="fill:#76AD9C;" d="M362.083,331.256c2.533-3.807,7.07-13.142-2.057-21.572c-0.694-0.641-1.798-0.451-2.29,0.355
							c-4.932,8.089-0.483,17.327,1.833,21.162C360.134,332.136,361.478,332.165,362.083,331.256z"/>
						<path style="fill:#D66562;" d="M362.083,331.256c2.533-3.807,7.07-13.142-2.057-21.572c-0.694-0.641-1.798-0.451-2.29,0.355
							c-4.932,8.089-0.483,17.327,1.833,21.162C360.134,332.136,361.478,332.165,362.083,331.256z"/>
						<path style="fill:#8E3535;" d="M361.246,329.984c0,0,1.675-8.264,0.418-11.409
							C360.407,315.431,361.246,329.984,361.246,329.984z"/>
					</g>
				</g>
				<g>
					<g>
						<path style="fill:#76AD9C;" d="M334.128,346.017c4.547-0.475,14.923-0.159,18.15,11.838c0.245,0.912-0.436,1.802-1.378,1.863
							c-9.454,0.612-15.571-7.618-17.891-11.45C332.443,347.334,333.042,346.13,334.128,346.017z"/>
						<path style="fill:#D66562;" d="M334.128,346.017c4.547-0.475,14.923-0.159,18.15,11.838c0.245,0.912-0.436,1.802-1.378,1.863
							c-9.454,0.612-15.571-7.618-17.891-11.45C332.443,347.334,333.042,346.13,334.128,346.017z"/>
						<path style="fill:#8E3535;" d="M334.866,347.349c0,0,8.097,2.353,10.298,4.927
							C347.364,354.849,334.866,347.349,334.866,347.349z"/>
					</g>
					<g>
						<path style="fill:#76AD9C;" d="M334.128,346.017c2.993-3.457,8.672-12.145,0.682-21.659c-0.607-0.723-1.727-0.674-2.317,0.064
							c-5.913,7.402-2.666,17.128-0.852,21.224C332.083,346.644,333.413,346.843,334.128,346.017z"/>
						<path style="fill:#D66562;" d="M334.128,346.017c2.993-3.457,8.672-12.145,0.682-21.659c-0.607-0.723-1.727-0.674-2.317,0.064
							c-5.913,7.402-2.666,17.128-0.852,21.224C332.083,346.644,333.413,346.843,334.128,346.017z"/>
						<path style="fill:#8E3535;" d="M333.458,344.65c0,0,2.705-7.987,1.854-11.264C334.462,330.108,333.458,344.65,333.458,344.65z
							"/>
					</g>
				</g>
				<g>
					<path style="fill:#76AD9C;" d="M420.964,282.139c4.342-1.432,13.674-5.978,11.695-18.243c-0.151-0.932-1.137-1.465-2.021-1.134
						c-8.873,3.32-11.074,13.336-11.618,17.782C418.887,281.629,419.927,282.481,420.964,282.139z"/>
					<path style="fill:#D66562;" d="M420.964,282.139c4.342-1.432,13.674-5.978,11.695-18.243c-0.151-0.932-1.137-1.465-2.021-1.134
						c-8.873,3.32-11.074,13.336-11.618,17.782C418.887,281.629,419.927,282.481,420.964,282.139z"/>
					<path style="fill:#8E3535;" d="M421.091,280.622c0,0,6.419-5.469,7.37-8.719C429.411,268.654,421.091,280.622,421.091,280.622z
						"/>
				</g>
			</g>
		</g>
		<g>
			<g>
				<g>
					<g>
						<path style="fill:#56221C;" d="M144.259,454.764l-15.454,3.397c-17.46-6.436-33.663-19.361-47.062-39.163
							c42.75-6.816,129.979,24.781,129.979,24.781c-24.092,16.948-50.206,22.914-74.451,16.972L144.259,454.764z"/>
						<g>
							<g>
								<path style="fill:#8E3535;" d="M48.649,338.403c7.318,1.479,14.472,3.26,21.463,5.296l1.402,9.582l5.949-7.327
									c69.742,22.497,121.873,70.664,147.251,108.521c0,0-38.856,5.948-82.477-13.214l7.209-14.357l-13.521,11.419
									c-20.451-10.06-41.577-25.859-59.957-50.537l9.081-13.942l-14.312,6.557C62.632,368.388,55.158,354.502,48.649,338.403z"/>
								<path style="fill:#D66562;" d="M142.236,441.261l7.209-14.357l-13.521,11.419c-20.451-10.06-41.577-25.859-59.957-50.537
									l9.081-13.942l-14.312,6.557c-8.103-12.012-15.578-25.899-22.087-41.998c0,0,100.325,87.366,176.064,116.072
									C224.713,454.475,185.857,460.422,142.236,441.261z"/>
							</g>
							<path style="fill:none;stroke:#FEFEFE;stroke-width:0.7792;stroke-miterlimit:10;" d="M224.713,454.475
								c0,0-88.374-36.965-176.064-116.072"/>
							
								<line style="fill:none;stroke:#FEFEFE;stroke-width:0.7792;stroke-miterlimit:10;" x1="103.039" y1="355.641" x2="109.116" y2="387.034"/>
							
								<line style="fill:none;stroke:#FEFEFE;stroke-width:0.7792;stroke-miterlimit:10;" x1="134.309" y1="404.166" x2="103.232" y2="416.927"/>
							
								<line style="fill:none;stroke:#FEFEFE;stroke-width:0.7792;stroke-miterlimit:10;" x1="177.173" y1="430.444" x2="168.155" y2="394.796"/>
						</g>
					</g>
				</g>
				<path style="opacity:0.52;fill:#420A05;" d="M224.917,454.475c0,0-12.645,1.933-31.601,0.04
					c-9.436,4.3-19.02,6.978-28.542,7.998c13.385-22.99,12.47-51.775,11.752-61.038C197.332,419.09,213.728,437.784,224.917,454.475
					z"/>
			</g>
			<g>
				<path style="fill:none;stroke:#FFF6E7;stroke-width:3.5613;stroke-miterlimit:10;" d="M156.616,219.865
					c0,0,30.141,99.627,101.369,123.701"/>
				<g>
					<path style="fill:#FFF6E7;" d="M162.658,211.644c1.351,4.333-1.066,8.941-5.399,10.292c-4.333,1.351-8.941-1.066-10.292-5.399
						c-1.351-4.333,1.066-8.941,5.399-10.292C156.699,204.893,161.307,207.311,162.658,211.644z"/>
					<g>
						<path style="fill:#56221C;" d="M145.93,185.607c-5.901,11.25,3.193,29.576,3.193,29.576l5.976-0.175l5.016-3.253
							C160.115,211.756,157.18,191.508,145.93,185.607z"/>
						<path style="fill:#D66562;" d="M155.099,215.009l3.536-1.103c5.961-1.859,9.287-8.198,7.428-14.159l-4.089-13.112
							C161.974,186.635,149.98,198.593,155.099,215.009z"/>
						<path style="fill:#D66562;" d="M155.099,215.009l-3.536,1.103c-5.961,1.859-12.3-1.466-14.159-7.428l-4.089-13.112
							C133.315,195.572,149.98,198.593,155.099,215.009z"/>
					</g>
				</g>
			</g>
			<g>
				<path style="fill:none;stroke:#FFF6E7;stroke-width:3.5613;stroke-miterlimit:10;" d="M127.592,233.562
					c0,0,57.564,86.721,132.707,89.254"/>
				<g>
					<g>
						<path style="fill:#8E3535;" d="M133.186,221.364c-5.155,1.551-8.452,5.737-7.365,9.35c1.087,3.613,6.147,5.285,11.301,3.734
							c5.155-1.551,8.452-5.737,7.365-9.35C143.401,221.485,138.341,219.813,133.186,221.364z"/>
						<path style="fill:#8E3535;" d="M129.555,219.413c1.551,5.155-0.121,10.214-3.734,11.301c-3.613,1.087-7.799-2.211-9.35-7.365
							c-1.551-5.155,0.121-10.214,3.734-11.301C123.819,210.96,128.005,214.258,129.555,219.413z"/>
						<path style="fill:#8E3535;" d="M122.087,242.015c-1.551-5.155,0.121-10.214,3.734-11.301c3.613-1.087,7.799,2.211,9.35,7.365
							c1.551,5.155-0.121,10.214-3.734,11.301C127.823,250.467,123.637,247.17,122.087,242.015z"/>
						<path style="fill:#8E3535;" d="M118.456,240.064c5.155-1.551,8.452-5.737,7.365-9.35c-1.087-3.613-6.147-5.285-11.301-3.734
							c-5.155,1.551-8.452,5.737-7.365,9.35C108.241,239.942,113.301,241.614,118.456,240.064z"/>
					</g>
					<g>
						<path style="fill:#D66562;" d="M124.418,218.895c-2.548,4.741-1.92,10.033,1.403,11.819c3.323,1.786,8.083-0.609,10.632-5.351
							c2.548-4.741,1.92-10.033-1.403-11.819C131.726,211.758,126.966,214.153,124.418,218.895z"/>
						<path style="fill:#D66562;" d="M120.47,220.082c4.741,2.548,7.137,7.308,5.351,10.632c-1.786,3.323-7.078,3.952-11.819,1.403
							c-4.741-2.548-7.137-7.308-5.351-10.632C110.437,218.162,115.729,217.534,120.47,220.082z"/>
						<path style="fill:#D66562;" d="M131.172,241.346c-4.741-2.548-7.137-7.308-5.351-10.632c1.786-3.323,7.078-3.952,11.819-1.403
							c4.741,2.548,7.137,7.308,5.351,10.632C141.205,243.266,135.913,243.894,131.172,241.346z"/>
						<path style="fill:#D66562;" d="M127.224,242.533c2.548-4.741,1.92-10.033-1.403-11.819c-3.323-1.786-8.083,0.609-10.632,5.351
							c-2.548,4.741-1.92,10.033,1.403,11.819C119.916,249.67,124.676,247.274,127.224,242.533z"/>
					</g>
					<path style="fill:#F9F3E9;" d="M118.6,226.833c-2.143,3.988-0.648,8.959,3.34,11.102c3.988,2.143,8.959,0.648,11.102-3.34
						c2.143-3.988,0.648-8.959-3.34-11.102C125.714,221.349,120.744,222.845,118.6,226.833z"/>
				</g>
			</g>
			<g>
				<path style="fill:none;stroke:#D66562;stroke-width:1.122;stroke-miterlimit:10;" d="M208.586,357.47
					c0,0-68.143-15.636-117.735-76.692"/>
				<g>
					<g>
						<path style="fill:#76AD9C;" d="M102.791,295.061c-4.1-2.023-13.941-5.324-21.129,4.809c-0.547,0.77-0.217,1.841,0.646,2.226
							c8.655,3.853,17.246-1.745,20.751-4.534C103.914,296.881,103.77,295.545,102.791,295.061z"/>
						<path style="fill:#D66562;" d="M102.791,295.061c-4.1-2.023-13.941-5.324-21.129,4.809c-0.547,0.77-0.217,1.841,0.646,2.226
							c8.655,3.853,17.246-1.745,20.751-4.534C103.914,296.881,103.77,295.545,102.791,295.061z"/>
						<path style="fill:#8E3535;" d="M101.637,296.055c0,0-8.411-0.601-11.368,1.05C87.312,298.755,101.637,296.055,101.637,296.055
							z"/>
					</g>
					<g>
						<path style="fill:#76AD9C;" d="M102.791,295.061c-1.608-4.28-3.921-14.399,6.872-20.551c0.821-0.468,1.854-0.034,2.151,0.863
							c2.979,8.993-3.44,16.99-6.562,20.202C104.491,296.359,103.175,296.084,102.791,295.061z"/>
						<path style="fill:#D66562;" d="M102.791,295.061c-1.608-4.28-3.921-14.399,6.872-20.551c0.821-0.468,1.854-0.034,2.151,0.863
							c2.979,8.993-3.44,16.99-6.562,20.202C104.491,296.359,103.175,296.084,102.791,295.061z"/>
						<path style="fill:#8E3535;" d="M103.893,294.011c0,0,0.233-8.429,2.168-11.208
							C107.995,280.024,103.893,294.011,103.893,294.011z"/>
					</g>
				</g>
				<g>
					<g>
						<path style="fill:#76AD9C;" d="M124.394,313.333c-4.345-1.424-14.553-3.302-20.239,7.744c-0.432,0.84,0.046,1.854,0.954,2.112
							c9.112,2.593,16.827-4.163,19.903-7.419C125.763,314.976,125.431,313.673,124.394,313.333z"/>
						<path style="fill:#D66562;" d="M124.394,313.333c-4.345-1.424-14.553-3.302-20.239,7.744c-0.432,0.84,0.046,1.854,0.954,2.112
							c9.112,2.593,16.827-4.163,19.903-7.419C125.763,314.976,125.431,313.673,124.394,313.333z"/>
						<path style="fill:#8E3535;" d="M123.392,314.479c0,0-8.411,0.593-11.106,2.644
							C109.592,319.175,123.392,314.479,123.392,314.479z"/>
					</g>
					<g>
						<path style="fill:#76AD9C;" d="M124.394,313.333c-2.196-4.01-5.915-13.701,3.902-21.315c0.746-0.579,1.831-0.295,2.251,0.551
							c4.219,8.482-1.006,17.305-3.644,20.926C126.26,314.378,124.918,314.291,124.394,313.333z"/>
						<path style="fill:#D66562;" d="M124.394,313.333c-2.196-4.01-5.915-13.701,3.902-21.315c0.746-0.579,1.831-0.295,2.251,0.551
							c4.219,8.482-1.006,17.305-3.644,20.926C126.26,314.378,124.918,314.291,124.394,313.333z"/>
						<path style="fill:#8E3535;" d="M125.337,312.138c0,0-0.959-8.378,0.563-11.402
							C127.423,297.711,125.337,312.138,125.337,312.138z"/>
					</g>
				</g>
				<g>
					<g>
						<path style="fill:#76AD9C;" d="M149.427,331.256c-4.451-1.045-14.783-2.04-19.499,9.453c-0.359,0.874,0.205,1.843,1.132,2.022
							c9.301,1.8,16.407-5.592,19.193-9.101C150.932,332.775,150.49,331.505,149.427,331.256z"/>
						<path style="fill:#D66562;" d="M149.427,331.256c-4.451-1.045-14.783-2.04-19.499,9.453c-0.359,0.874,0.205,1.843,1.132,2.022
							c9.301,1.8,16.407-5.592,19.193-9.101C150.932,332.775,150.49,331.505,149.427,331.256z"/>
						<path style="fill:#8E3535;" d="M148.527,332.484c0,0-8.329,1.313-10.837,3.589
							C135.182,338.347,148.527,332.484,148.527,332.484z"/>
					</g>
					<g>
						<path style="fill:#76AD9C;" d="M149.427,331.256c-2.533-3.807-7.07-13.142,2.057-21.572c0.694-0.641,1.798-0.451,2.29,0.355
							c4.932,8.089,0.483,17.327-1.833,21.162C151.376,332.136,150.032,332.165,149.427,331.256z"/>
						<path style="fill:#D66562;" d="M149.427,331.256c-2.533-3.807-7.07-13.142,2.057-21.572c0.694-0.641,1.798-0.451,2.29,0.355
							c4.932,8.089,0.483,17.327-1.833,21.162C151.376,332.136,150.032,332.165,149.427,331.256z"/>
						<path style="fill:#8E3535;" d="M150.264,329.984c0,0-1.675-8.264-0.418-11.409
							C151.103,315.431,150.264,329.984,150.264,329.984z"/>
					</g>
				</g>
				<g>
					<g>
						<path style="fill:#76AD9C;" d="M177.382,346.017c-4.547-0.475-14.922-0.159-18.15,11.838
							c-0.245,0.912,0.436,1.802,1.378,1.863c9.454,0.612,15.571-7.618,17.891-11.45
							C179.067,347.334,178.468,346.13,177.382,346.017z"/>
						<path style="fill:#D66562;" d="M177.382,346.017c-4.547-0.475-14.922-0.159-18.15,11.838
							c-0.245,0.912,0.436,1.802,1.378,1.863c9.454,0.612,15.571-7.618,17.891-11.45
							C179.067,347.334,178.468,346.13,177.382,346.017z"/>
						<path style="fill:#8E3535;" d="M176.644,347.349c0,0-8.097,2.353-10.298,4.927
							C164.145,354.849,176.644,347.349,176.644,347.349z"/>
					</g>
					<g>
						<path style="fill:#76AD9C;" d="M177.382,346.017c-2.993-3.457-8.672-12.145-0.682-21.659c0.607-0.723,1.727-0.674,2.317,0.064
							c5.913,7.402,2.666,17.128,0.852,21.224C179.427,346.644,178.097,346.843,177.382,346.017z"/>
						<path style="fill:#D66562;" d="M177.382,346.017c-2.993-3.457-8.672-12.145-0.682-21.659c0.607-0.723,1.727-0.674,2.317,0.064
							c5.913,7.402,2.666,17.128,0.852,21.224C179.427,346.644,178.097,346.843,177.382,346.017z"/>
						<path style="fill:#8E3535;" d="M178.052,344.65c0,0-2.705-7.987-1.854-11.264C177.048,330.108,178.052,344.65,178.052,344.65z
							"/>
					</g>
				</g>
				<g>
					<path style="fill:#76AD9C;" d="M90.546,282.139c-4.342-1.432-13.674-5.978-11.695-18.243c0.15-0.932,1.137-1.465,2.021-1.134
						c8.873,3.32,11.074,13.336,11.618,17.782C92.622,281.629,91.583,282.481,90.546,282.139z"/>
					<path style="fill:#D66562;" d="M90.546,282.139c-4.342-1.432-13.674-5.978-11.695-18.243c0.15-0.932,1.137-1.465,2.021-1.134
						c8.873,3.32,11.074,13.336,11.618,17.782C92.622,281.629,91.583,282.481,90.546,282.139z"/>
					<path style="fill:#8E3535;" d="M90.419,280.622c0,0-6.419-5.469-7.37-8.719C82.098,268.654,90.419,280.622,90.419,280.622z"/>
				</g>
			</g>
		</g>
	</g>
	<g>
		<g>
			<path style="fill:#EFEEE4;" d="M316.962,377.073c-30.332-38.837-60.808-22.382-60.808-22.382s-30.476-16.455-60.808,22.382
				C165.014,415.911,189.314,500,189.314,500h66.841h66.841C322.995,500,347.295,415.911,316.962,377.073z"/>
			<path style="fill:#D3D1C5;" d="M256.154,466.816c0,0-10.011-17.809-11.764-52.204c20.896,0,20.896,0,20.896,0
				S263.676,452.161,256.154,466.816z"/>
			<path style="fill:none;stroke:#B7B5A9;stroke-width:1.0799;stroke-miterlimit:10;" d="M206.01,500
				c0,0-18.662-61.474-6.671-96.624"/>
			<path style="fill:none;stroke:#B7B5A9;stroke-width:1.0799;stroke-miterlimit:10;" d="M305.755,500
				c0,0,18.662-61.474,6.672-96.624"/>
			
				<line style="fill:none;stroke:#B7B5A9;stroke-width:1.0799;stroke-miterlimit:10;" x1="256.154" y1="466.816" x2="256.154" y2="500"/>
			<path style="fill:#D3D1C5;" d="M257.72,465.514c0,0,20.783-8.92,30.289-4.803C297.515,464.828,270.07,466.886,257.72,465.514z"/>
			<path style="fill:#D3D1C5;" d="M254.589,465.514c0,0-20.783-8.92-30.289-4.803C214.793,464.828,242.239,466.886,254.589,465.514z
				"/>
			<path style="fill:none;stroke:#B7B5A9;stroke-width:1.0799;stroke-miterlimit:10;" d="M234.316,413.368
				c0,0-2.937,28.792-38.436,32.578"/>
			<path style="fill:none;stroke:#B7B5A9;stroke-width:1.0799;stroke-miterlimit:10;" d="M277.993,413.368
				c0,0,2.937,28.792,38.436,32.578"/>
		</g>
		<path style="opacity:0.2;fill:#381612;" d="M316.962,377.073c-30.332-38.837-60.808-22.382-60.808-22.382
			s-30.476-16.455-60.808,22.382c-8.597,11.008-12.803,25.652-14.42,40.986c3.955,5.153,12.873,14.419,26.695,15.892
			c19.315,2.058,20.687-3.431,35.782-4.46c15.095-1.029,22.222-2.058,43.188,2.058c15.454,3.035,34.233-0.275,45.242-8.267
			C330.66,406.084,326.532,389.326,316.962,377.073z"/>
		<circle style="fill:#462E2D;" cx="255.668" cy="73.132" r="28.423"/>
		<path style="fill:#332020;" d="M241.109,81.594c0-15.698,12.725-28.423,28.423-28.423c2.507,0,4.936,0.328,7.251,0.937
			c-5.202-5.77-12.734-9.399-21.115-9.399c-15.698,0-28.423,12.725-28.423,28.423c0,13.191,8.987,24.28,21.172,27.486
			C243.875,95.581,241.109,88.911,241.109,81.594z"/>
		<path style="fill:#462E2D;" d="M207.679,123.041c0,0,3.019,10.271,7.136,18.504c78.677,0,78.677,0,78.677,0
			s8.19-10.063,9.127-27.445c-17.818-10.063-38.402-21.956-38.402-21.956L207.679,123.041z"/>
		<circle style="fill:#EFEEE4;" cx="255.668" cy="82.552" r="16.038"/>
		<path style="fill:#D66562;" d="M392.98,302.9c-1.715-22.642-52.489-75.131-79.248-99.489
			c-26.759-24.358-57.978,3.088-57.978,3.088s-31.219-27.445-57.978-3.088c-26.759,24.358-77.533,76.847-79.248,99.489
			c-0.686,17.153,6.861,27.102,6.861,27.102h130.365h130.365C386.119,330.003,393.667,320.054,392.98,302.9z"/>
		<path style="fill:none;stroke:#993C3C;stroke-width:0.5194;stroke-miterlimit:10;" d="M196.236,204.82
			c0,0,14.005,18.604,19.951,67.09"/>
		<path style="fill:none;stroke:#993C3C;stroke-width:0.5194;stroke-miterlimit:10;" d="M315.272,204.82
			c0,0-14.005,18.604-19.951,67.09"/>
		<path style="fill:#8E3535;" d="M274.905,316.734c0,0,8.295-72.269,11.268-92.624c2.278-15.595-5.306-25.352-8.98-29.066
			c-6.622,1.894-12.262,5.01-16.092,7.515L274.905,316.734z"/>
		<path style="fill:#8E3535;" d="M236.604,316.734c0,0-8.295-72.269-11.268-92.624c-2.278-15.595,5.306-25.352,8.98-29.066
			c6.622,1.894,12.262,5.01,16.092,7.515L236.604,316.734z"/>
		<path style="fill:#EFEEE4;" d="M269.648,212.503h-13.894H241.86c0,0-9.434,82.507-3.945,117.5h17.839h17.839
			C279.083,295.01,269.648,212.503,269.648,212.503z"/>
		<g>
			
				<ellipse transform="matrix(0.7071 -0.7071 0.7071 0.7071 -157.9238 277.4083)" style="fill:#56221C;" cx="255.9" cy="329.335" rx="93.888" ry="93.888"/>
			<path style="opacity:0.24;fill:#EFEEE4;" d="M162.012,329.318c-0.005,27.49,11.807,52.22,30.632,69.393
				c10.151-1.741,7.699-9.362,7.699-9.362s0,0,108.916-122.336c8.938-2.847,6.651-9.794,6.611-9.911
				c-16.262-13.516-37.155-21.651-59.953-21.655C204.064,235.438,162.021,277.465,162.012,329.318z"/>
			
				<ellipse transform="matrix(0.7071 -0.7071 0.7071 0.7071 -157.7971 277.3557)" style="fill:#EFEEE4;" cx="255.899" cy="329.156" rx="81.919" ry="81.919"/>
			<g>
				<g>
					<path style="fill:#D66562;" d="M308.553,310.911c-6.332-4.975-17.865-10.403-27.815-6.784
						c-2.876,1.046-6.149,1.975-9.349,2.767c-10.054,2.489-20.548,2.489-30.601,0c-3.2-0.792-6.473-1.721-9.349-2.767
						c-9.95-3.618-21.483,1.809-27.815,6.784c-6.332,4.975-7.915,13.342-1.131,18.77s16.961,0.678,15.83-4.975
						c-1.131-5.654-7.236-8.578-7.236-8.578s5.88-7.026,12.212-2.956c8.082,5.195,17.187,15.378,21.484,26.006
						c4.297,10.629,4.07,15.378,1.583,24.423c-2.488,9.046,4.975,22.388,9.724,23.971c4.749-1.583,12.212-14.925,9.724-23.971
						c-2.488-9.046-2.714-13.795,1.583-24.423c4.297-10.629,13.402-20.811,21.483-26.006c6.332-4.071,12.212,2.956,12.212,2.956
						s-6.106,2.924-7.237,8.578c-1.131,5.654,9.046,10.402,15.83,4.975C316.468,324.253,314.885,315.886,308.553,310.911z"/>
					<path style="fill:#EFEEE4;" d="M271.013,314.981c-0.715-0.222-2.005-0.022-3.539,0.403c-7.469,2.069-15.304,2.069-22.773,0
						c-1.533-0.425-2.824-0.625-3.539-0.403c-2.86,0.887,13.568,22.84,14.925,34.147
						C257.445,337.821,273.873,315.868,271.013,314.981z"/>
				</g>
				<path style="fill:#8E3535;" d="M314.05,320.465c-1.747-7.687-12.96-4.337-12.96-4.337s-6.106,2.924-7.237,8.578
					c-1.131,5.653,9.046,10.402,15.83,4.975C312.963,327.057,314.272,323.747,314.05,320.465z"/>
				<path style="fill:#8E3535;" d="M198.126,320.465c1.747-7.687,12.96-4.337,12.96-4.337s6.106,2.924,7.236,8.578
					c1.131,5.653-9.046,10.402-15.83,4.975C199.214,327.057,197.904,323.747,198.126,320.465z"/>
			</g>
			<g>
				<path style="fill:#D66562;" d="M309.241,361.9c0.133-1.761,1.776-2.973,3.194-2.205c3.025,1.638,5.995,3.382,8.946,5.153
					c0.97,0.583,1.144,1.926,0.554,2.877c-0.6,0.968-1.827,1.316-2.924,0.708c-2.341-1.297-4.648-2.655-6.967-3.991
					c-0.542-0.312-1.149-0.557-1.6-0.97C309.965,363.034,309.636,362.431,309.241,361.9z"/>
				<path style="fill:#D66562;" d="M258.053,398.748c0,1.566,0.01,3.132-0.004,4.697c-0.012,1.377-0.892,2.34-2.117,2.354
					c-1.289,0.015-2.225-0.957-2.229-2.366c-0.008-3.132-0.004-6.263,0.012-9.395c0.007-1.47,0.862-2.388,2.174-2.391
					c1.307-0.002,2.143,0.913,2.157,2.403c0.015,1.566,0.003,3.132,0.003,4.697C258.05,398.748,258.052,398.748,258.053,398.748z"/>
				<path style="fill:#D66562;" d="M325.15,331.664c-1.566,0-3.133,0.013-4.699-0.005c-1.501-0.017-2.381-0.84-2.376-2.179
					c0.005-1.268,0.879-2.121,2.322-2.134c3.167-0.031,6.336-0.029,9.503-0.005c1.363,0.01,2.31,0.957,2.296,2.192
					c-0.014,1.245-0.946,2.104-2.347,2.119c-1.566,0.018-3.133,0.003-4.7,0.003C325.15,331.659,325.15,331.662,325.15,331.664z"/>
				<path style="fill:#D66562;" d="M225.874,385.474c-0.076,0.191-0.201,0.663-0.433,1.073c-1.526,2.689-3.066,5.37-4.621,8.043
					c-0.703,1.207-1.942,1.603-3.005,1.006c-1.156-0.65-1.492-1.887-0.784-3.137c1.558-2.75,3.137-5.49,4.731-8.22
					c0.609-1.044,1.642-1.469,2.656-1.108C225.36,383.466,225.883,384.148,225.874,385.474z"/>
				<path style="fill:#D66562;" d="M288.549,383.037c0.301,0.246,1.066,0.613,1.44,1.221c1.638,2.668,3.178,5.395,4.72,8.12
					c0.732,1.293,0.444,2.547-0.646,3.186c-1.149,0.673-2.364,0.293-3.152-1.053c-1.581-2.703-3.153-5.411-4.687-8.141
					C285.323,384.769,286.321,383.024,288.549,383.037z"/>
				<path style="fill:#D66562;" d="M186.659,331.614c-1.567-0.001-3.133,0.013-4.699-0.006c-1.435-0.018-2.302-0.836-2.302-2.126
					c0-1.28,0.875-2.136,2.309-2.15c3.132-0.031,6.266-0.033,9.398-0.018c1.383,0.007,2.354,0.911,2.37,2.124
					c0.017,1.317-0.878,2.154-2.377,2.173C189.792,331.632,188.225,331.615,186.659,331.614z"/>
				<path style="fill:#D66562;" d="M191.862,368.705c-1.21-0.085-1.902-0.576-2.211-1.55c-0.304-0.959,0.063-1.936,1.015-2.497
					c2.454-1.448,4.928-2.86,7.396-4.285c0.361-0.208,0.721-0.421,1.094-0.606c1.147-0.566,2.378-0.198,2.958,0.871
					c0.55,1.015,0.222,2.235-0.862,2.883c-1.938,1.16-3.906,2.27-5.861,3.4c-0.782,0.452-1.552,0.928-2.352,1.345
					C192.618,368.487,192.143,368.603,191.862,368.705z"/>
				<path style="fill:#D66562;" d="M258.04,260.295c0,1.564,0.01,3.128-0.004,4.692c-0.012,1.367-0.877,2.298-2.143,2.34
					c-1.13,0.037-2.116-0.935-2.13-2.245c-0.034-3.197-0.03-6.396,0.003-9.593c0.013-1.305,0.969-2.231,2.152-2.217
					c1.27,0.016,2.103,0.923,2.112,2.33c0.01,1.564,0.002,3.128,0.002,4.692C258.034,260.295,258.037,260.295,258.04,260.295z"/>
				<path style="fill:#D66562;" d="M311.842,299.474c-1.21,0.002-1.926-0.454-2.258-1.429c-0.348-1.025-0.002-1.992,1.005-2.592
					c2.062-1.228,4.154-2.408,6.234-3.607c0.724-0.417,1.435-0.857,2.175-1.242c1.116-0.581,2.328-0.265,2.928,0.723
					c0.641,1.057,0.372,2.296-0.776,2.977c-2.814,1.67-5.66,3.286-8.503,4.906C312.357,299.376,311.999,299.424,311.842,299.474z"/>
				<path style="fill:#D66562;" d="M295.191,265.295c-0.176,0.468-0.272,0.88-0.472,1.232c-1.543,2.716-3.089,5.431-4.672,8.124
					c-0.757,1.287-1.97,1.639-3.086,0.989c-1.068-0.621-1.351-1.842-0.638-3.093c1.564-2.744,3.134-5.486,4.764-8.191
					c0.899-1.491,2.521-1.622,3.525-0.338C294.891,264.378,295.003,264.869,295.191,265.295z"/>
				<path style="fill:#D66562;" d="M199.886,299.43c-0.16-0.062-0.566-0.162-0.916-0.363c-2.745-1.571-5.483-3.154-8.213-4.75
					c-1.098-0.642-1.471-1.954-0.888-2.961c0.575-0.994,1.807-1.376,2.91-0.761c2.852,1.592,5.681,3.228,8.494,4.888
					c0.966,0.57,1.288,1.545,0.935,2.51C201.86,298.943,201.172,299.443,199.886,299.43z"/>
				<path style="fill:#D66562;" d="M225.865,273.539c0.022,1.196-0.538,1.987-1.527,2.275c-0.989,0.288-1.828-0.017-2.342-0.88
					c-1.69-2.833-3.353-5.682-4.975-8.553c-0.609-1.077-0.213-2.356,0.766-2.912c1.008-0.572,2.236-0.3,2.888,0.788
					c1.678,2.797,3.298,5.63,4.923,8.46C225.764,273.008,225.811,273.368,225.865,273.539z"/>
			</g>
			<path style="fill:#8E3535;" d="M262.464,329.157c-0.001,3.521-2.856,6.375-6.377,6.375c-3.521-0.001-6.375-2.856-6.374-6.377
				c0.001-3.521,2.855-6.375,6.377-6.375C259.61,322.781,262.464,325.636,262.464,329.157z"/>
			<path style="fill:#56221C;" d="M304.577,287.04c0.868-0.813,0.912-2.176,0.099-3.043l0,0c-0.813-0.868-2.175-0.912-3.043-0.099
				l-47.104,44.142c-0.868,0.813-0.912,2.176-0.099,3.043l0,0c0.813,0.868,2.176,0.912,3.043,0.099L304.577,287.04z"/>
			<path style="fill:#56221C;" d="M223.811,305.127c-0.907-0.791-1.001-2.167-0.21-3.074l0,0c0.791-0.907,2.167-1.001,3.074-0.21
				l30.43,26.541c0.907,0.791,1.001,2.167,0.21,3.074l0,0c-0.791,0.907-2.167,1.001-3.074,0.21L223.811,305.127z"/>
			
				<ellipse transform="matrix(0.7071 -0.7071 0.7071 0.7071 -157.9517 277.402)" style="fill:none;stroke:#381612;stroke-width:1.0387;stroke-miterlimit:10;" cx="255.878" cy="329.366" rx="90.226" ry="90.226"/>
		</g>
		<path style="fill:#8C564F;" d="M268.104,173.393l-12.35,1.887l-12.35-1.887c0,0,0,29.161-1.544,39.11
			c0.055,0.074,0.11,0.147,0.166,0.219c6.87,8.976,20.587,8.976,27.457,0c0.055-0.072,0.111-0.146,0.165-0.219
			C268.104,202.554,268.104,173.393,268.104,173.393z"/>
		<path style="fill:#381612;" d="M268.104,173.393l-12.35,1.887l-12.35-1.887c0,0,0,8.567-0.246,17.998
			c17.732-0.424,25.023-8.666,25.023-8.666l0,0C268.105,177.295,268.104,173.393,268.104,173.393z"/>
		<path style="fill:#6B3C39;" d="M207.106,146.744c3.193,6.134,9.233,9.311,13.491,7.095c4.258-2.216,5.121-8.986,1.928-15.12
			c-3.193-6.134-9.233-9.311-13.491-7.095C204.776,133.84,203.913,140.61,207.106,146.744z"/>
		<path style="fill:#8C564F;" d="M217.607,143.113c2.071,3.98,2.426,8.219,1.264,11.316c-4.042,0.755-8.983-2.341-11.765-7.685
			c-2.071-3.98-2.426-8.219-1.264-11.317C209.884,134.673,214.825,137.769,217.607,143.113z"/>
		
			<ellipse transform="matrix(0.4617 -0.887 0.887 0.4617 33.1041 340.0134)" style="fill:#6B3C39;" cx="296.693" cy="142.732" rx="12.522" ry="8.691"/>
		<path style="fill:#8C564F;" d="M293.901,143.113c-2.071,3.98-2.426,8.219-1.263,11.316c4.042,0.755,8.983-2.341,11.765-7.685
			c2.071-3.98,2.426-8.219,1.264-11.317C301.624,134.673,296.683,137.769,293.901,143.113z"/>
		<path style="fill:#8C564F;" d="M255.754,89.499c0,0-39.567,5.26-36.822,42.083c2.744,27.445,1.372,40.939,22.871,50.545
			c9.606,3.888,13.951,3.431,13.951,3.431s4.345,0.457,13.951-3.431c21.499-9.606,20.127-23.1,22.871-50.545
			C295.321,94.76,255.754,89.499,255.754,89.499z"/>
		<path style="fill:#EFEEE4;" d="M246.704,147.249c-0.837-3.512-4.816-6.175-9.608-6.175c-4.792,0-8.771,2.663-9.608,6.175H246.704z
			"/>
		<path style="fill:#280C0B;" d="M229.802,147.249h14.588c-1.042-3.03-3.91-5.211-7.294-5.211
			C233.712,142.038,230.844,144.219,229.802,147.249z"/>
		<path style="fill:#EFEEE4;" d="M264.804,147.249c0.837-3.512,4.816-6.175,9.608-6.175c4.792,0,8.771,2.663,9.608,6.175H264.804z"
			/>
		<path style="fill:#280C0B;" d="M281.706,147.249h-14.589c1.042-3.03,3.91-5.211,7.294-5.211S280.664,144.219,281.706,147.249z"/>
		<path style="fill:#352121;" d="M253.238,155.711l0.801,5.946c0,0,2.859,1.372,5.947,0.343c-3.659,2.973-8.234,1.143-8.234,1.143
			L253.238,155.711z"/>
		<g>
			<path style="fill:#381612;" d="M250.722,168.405c1.811-0.41,3.621-0.502,5.432-0.519c1.811,0.015,3.621,0.107,5.432,0.519
				c-1.811,0.412-3.621,0.504-5.432,0.519C254.344,168.906,252.533,168.814,250.722,168.405z"/>
		</g>
		<path style="opacity:0.31;fill:#6B3C39;" d="M271.999,181.038c-59.888,5.917-45.749-58.59-45.749-58.59l-6.867-1.488
			c-0.556,3.212-0.741,6.74-0.452,10.623c2.744,27.445,1.372,40.939,22.871,50.545c9.606,3.888,13.951,3.431,13.951,3.431
			s4.345,0.457,13.951-3.431C270.504,181.77,271.262,181.406,271.999,181.038z"/>
		<path style="fill:none;stroke:#6B3C39;stroke-width:0.5194;stroke-linecap:round;stroke-miterlimit:10;" d="M246.704,164.86
			c0,0-2.5,2.058-1.928,6.061"/>
		<path style="fill:none;stroke:#6B3C39;stroke-width:0.5194;stroke-linecap:round;stroke-miterlimit:10;" d="M264.804,164.86
			c0,0,2.5,2.058,1.928,6.061"/>
		<path style="fill:none;stroke:#6B3C39;stroke-width:0.4923;stroke-linecap:round;stroke-miterlimit:10;" d="M225.564,146.677
			c0,0-2.058-0.229-3.088,0.915"/>
		<path style="fill:none;stroke:#6B3C39;stroke-width:0.4923;stroke-linecap:round;stroke-miterlimit:10;" d="M285.944,146.677
			c0,0,2.058-0.229,3.088,0.915"/>
		<g>
			<path style="fill:#6B3C39;" d="M284.4,143.189c-1.138-1.212-2.462-2.188-3.875-2.935c-1.421-0.73-2.945-1.234-4.522-1.394
				c-0.787-0.044-1.582-0.133-2.375-0.03c-0.396,0.04-0.8,0.019-1.192,0.107c-0.393,0.079-0.788,0.15-1.187,0.216
				c-0.404,0.046-0.784,0.19-1.176,0.296l-1.18,0.328c-0.776,0.26-1.531,0.586-2.332,0.84c0.689-0.461,1.411-0.884,2.137-1.31
				c0.773-0.315,1.527-0.721,2.347-0.938c1.617-0.527,3.356-0.68,5.073-0.54C279.554,138.212,282.767,140.266,284.4,143.189z"/>
		</g>
		<g>
			<path style="fill:#6B3C39;" d="M227.108,143.189c1.633-2.923,4.846-4.977,8.282-5.361c1.717-0.14,3.456,0.013,5.073,0.54
				c0.82,0.217,1.574,0.622,2.347,0.938c0.726,0.426,1.448,0.849,2.137,1.31c-0.801-0.254-1.556-0.58-2.332-0.84l-1.18-0.328
				c-0.392-0.106-0.772-0.25-1.176-0.296c-0.398-0.067-0.794-0.137-1.187-0.216c-0.392-0.088-0.797-0.067-1.193-0.107
				c-0.793-0.103-1.588-0.014-2.375,0.03c-1.577,0.161-3.101,0.664-4.522,1.394C229.57,141.001,228.246,141.978,227.108,143.189z"/>
		</g>
		<path style="fill:#462E2D;" d="M267.118,85.211c0,0-5.934,42.197-53.076,44.084c-6.317-0.171-13.693-19.04-5.288-34.65
			S245.376,63.083,267.118,85.211z"/>
		<path style="fill:#462E2D;" d="M260.9,92.587c0,0,9.189,30.022,31.782,37.053c8.013,2.4,10.758-14.239,9.729-20.757
			c-1.029-6.518-8.835-30.876-35.293-23.672C258.499,91.558,260.9,92.587,260.9,92.587z"/>
		<g>
			<path style="fill:#280C0B;" d="M246.704,147.249c-0.662-2.039-2.112-3.648-3.831-4.711c-1.734-1.059-3.757-1.592-5.778-1.589
				c-2.021-0.001-4.044,0.532-5.777,1.591c-1.717,1.064-3.168,2.671-3.831,4.71c0.234-2.137,1.553-4.141,3.355-5.418
				c1.796-1.312,4.035-1.961,6.253-1.975c2.218,0.016,4.457,0.664,6.252,1.977C245.149,143.109,246.468,145.112,246.704,147.249z"/>
		</g>
		<g>
			<path style="fill:#280C0B;" d="M264.804,147.249c0.236-2.137,1.555-4.14,3.356-5.417c1.795-1.312,4.034-1.961,6.252-1.977
				c2.218,0.015,4.457,0.663,6.253,1.975c1.802,1.277,3.121,3.281,3.355,5.418c-0.663-2.039-2.114-3.646-3.831-4.71
				c-1.733-1.059-3.756-1.592-5.777-1.591c-2.021-0.003-4.044,0.531-5.778,1.589C266.916,143.601,265.466,145.209,264.804,147.249z"
				/>
		</g>
		<path style="fill:#462E2D;" d="M265.811,132.804c0,0,2.294-4.306,10.319-4.306c8.025,0,8.613,8.439,8.613,8.439
			S277.775,127.303,265.811,132.804z"/>
		<path style="fill:#462E2D;" d="M245.698,132.804c0,0-2.294-4.306-10.319-4.306s-8.613,8.439-8.613,8.439
			S233.733,127.303,245.698,132.804z"/>
		<path style="opacity:0.13;fill:#FFF6E7;" d="M250.265,137.537c0,0,2.439,0.74,1.758,10.055
			c-0.681,9.315-3.481,15.423-14.927,14.223s-20.88-9.965-21.824-19.777c-0.212-3.839,1.458-4.924,10.292-5.438
			C234.398,136.085,243.918,135.301,250.265,137.537z"/>
		<path style="opacity:0.13;fill:#FFF6E7;" d="M261.243,137.537c0,0-2.439,0.74-1.758,10.055
			c0.681,9.315,3.481,15.423,14.927,14.223c11.446-1.201,20.88-9.965,21.824-19.777c0.213-3.839-1.458-4.924-10.292-5.438
			C277.11,136.085,267.59,135.301,261.243,137.537z"/>
		<path style="fill:#CC5E5E;" d="M259.344,148.063c-4.07-1.22-6.464-0.11-6.564-0.062l-0.921-1.862
			c0.127-0.063,3.171-1.539,8.082-0.066L259.344,148.063z"/>
		<path style="opacity:0.13;fill:#FFF6E7;" d="M228.942,159.574c2.009-13.172,7.402-20.03,11.725-23.504
			c-4.778-0.145-10.051,0.235-15.102,0.529c-8.834,0.515-10.505,1.6-10.292,5.438C215.978,149.381,221.441,156.135,228.942,159.574z
			"/>
		<path style="opacity:0.13;fill:#FFF6E7;" d="M279.698,136.238c-6.857-0.354-13.589-0.415-18.455,1.299
			c0,0-2.439,0.74-1.758,10.055c0.527,7.205,2.341,12.474,8.424,13.944C269.634,147.288,275.2,139.935,279.698,136.238z"/>
		<path style="fill:#CC5E5E;" d="M228.498,160.512c-5.567-2.359-12.584-7.594-14.41-19.135c-0.307-1.946,0.967-3.851,2.9-4.337
			c13.096-3.297,26.027-2.601,33.032-0.447v0c1.556,0.479,2.688,1.832,2.884,3.446c0.582,4.773,1.318,16.309-4.409,20.328
			c-2.026,1.422-5.426,2.304-9.34,2.304C235.798,162.673,232.064,162.024,228.498,160.512z M249.409,138.58
			c-6.511-2.001-19.276-2.706-31.915,0.475c-0.902,0.227-1.497,1.104-1.356,1.998c1.678,10.6,8.088,15.393,13.17,17.547
			c6.968,2.954,14.765,2.335,17.994,0.069c4.94-3.468,3.958-14.942,3.539-18.377C250.744,139.49,250.182,138.818,249.409,138.58
			L249.409,138.58z"/>
		<path style="fill:#CC5E5E;" d="M272.353,162.673c-3.914,0-7.315-0.882-9.34-2.304c-5.726-4.019-4.991-15.555-4.409-20.328
			c0.196-1.614,1.328-2.968,2.884-3.446v0c7.005-2.154,19.937-2.85,33.032,0.447c1.933,0.486,3.208,2.391,2.9,4.337
			c-1.826,11.542-8.843,16.776-14.41,19.135C279.444,162.024,275.71,162.673,272.353,162.673z M262.099,138.579
			c-0.773,0.238-1.335,0.91-1.432,1.712c-0.419,3.435-1.401,14.909,3.539,18.377c3.229,2.266,11.026,2.885,17.994-0.069
			c5.082-2.154,11.492-6.947,13.17-17.547c0.141-0.894-0.454-1.771-1.356-1.998C281.375,135.874,268.61,136.579,262.099,138.579
			L262.099,138.579z"/>
		<path style="fill:#332020;" d="M261.255,80.251c-20.685-14.352-44.834,0.156-52.501,14.394c-4.341,8.061-4.467,16.986-2.71,23.761
			C236.963,113.542,256.909,86.643,261.255,80.251z"/>
		<path style="opacity:0.18;fill:#FFF6E7;" d="M275.213,83.931c-0.072,8.729,2.488,28.807,26.497,35.886
			c0.915-4.015,1.116-8.301,0.7-10.935C301.496,103.085,295.207,83.194,275.213,83.931z"/>
		<g>
			<path style="fill:#8C564F;" d="M261.758,102.464c0.677-2.962,1.552-5.832,2.434-8.704c0.914-2.863,1.814-5.72,2.926-8.549
				c-0.314,3.025-1.045,5.973-1.936,8.859C264.264,96.948,263.201,99.786,261.758,102.464z"/>
		</g>
		<g>
			<path style="fill:#D66562;" d="M391.466,317.703c0,0-9.464,34.256-46.515,77.139c-15.438-1.372-21.956-16.467-21.956-16.467
				s8.233-29.161,14.066-49.059c5.832-19.898,23.328-45.628,29.161-45.971C372.053,283.003,394.754,279.673,391.466,317.703z"/>
			<path style="fill:#BA5050;" d="M322.995,378.375c0,0-6.518,6.518-6.004,14.237c6.861,11.493,15.953,12.865,15.953,12.865
				s8.748-0.515,12.007-10.635C338.605,384.55,322.995,378.375,322.995,378.375z"/>
			<path style="fill:#8C564F;" d="M316.991,392.612c0,0-7.033,2.744-14.58,2.744c-7.547,0-12.522,1.887-10.807,5.146
				c1.715,3.259,8.405,2.573,12.007,4.117s2.745,4.974-3.774,7.376c-6.518,2.402-15.095,6.347-23.157,7.033
				c-3.431,1.544-1.715,6.004,2.058,6.175c4.288,0,5.146,0,5.146,0s2.23,3.259,6.347,3.088c4.117-0.172,4.974-0.686,4.974-0.686
				s1.201,1.729,8.062,0.693c6.861-1.036,22.471-7.211,29.675-22.82C328.484,394.671,316.991,392.612,316.991,392.612z"/>
			<path style="fill:none;stroke:#542D2C;stroke-width:0.5194;stroke-linecap:round;stroke-miterlimit:10;" d="M283.885,425.203
				c0,0,9.263-2.058,13.551-4.288"/>
			<path style="fill:none;stroke:#542D2C;stroke-width:0.5194;stroke-linecap:round;stroke-miterlimit:10;" d="M295.207,427.605
				c0,0,7.376-1.372,10.292-3.431"/>
			<path style="fill:#BA5050;" d="M366.679,298.212c0-9.638,5.524-17.981,13.575-22.051c7.321,10.546,12.214,19.975,12.727,26.74
				c0.343,8.562-1.366,15.327-3.164,19.958C376.904,322.051,366.679,311.328,366.679,298.212z"/>
		</g>
		<g>
			<path style="fill:#D66562;" d="M120.042,317.703c0,0,9.464,34.256,46.515,77.139c15.438-1.372,21.956-16.467,21.956-16.467
				s-8.234-29.161-14.066-49.059c-5.832-19.898-23.328-45.628-29.161-45.971C139.455,283.003,116.754,279.673,120.042,317.703z"/>
			<path style="fill:#BA5050;" d="M188.513,378.375c0,0,6.518,6.518,6.004,14.237c-6.861,11.493-15.953,12.865-15.953,12.865
				s-8.748-0.515-12.007-10.635C172.904,384.55,188.513,378.375,188.513,378.375z"/>
			<path style="fill:#8C564F;" d="M194.517,392.612c0,0,7.033,2.744,14.58,2.744c7.547,0,12.522,1.887,10.807,5.146
				c-1.715,3.259-8.405,2.573-12.007,4.117c-3.602,1.544-2.744,4.974,3.774,7.376c6.518,2.402,15.095,6.347,23.157,7.033
				c3.431,1.544,1.715,6.004-2.058,6.175c-4.288,0-5.146,0-5.146,0s-2.23,3.259-6.347,3.088c-4.117-0.172-4.975-0.686-4.975-0.686
				s-1.201,1.729-8.062,0.693c-6.861-1.036-22.471-7.211-29.675-22.82C183.024,394.671,194.517,392.612,194.517,392.612z"/>
			<path style="fill:none;stroke:#542D2C;stroke-width:0.5194;stroke-linecap:round;stroke-miterlimit:10;" d="M227.623,425.203
				c0,0-9.263-2.058-13.551-4.288"/>
			<path style="fill:none;stroke:#542D2C;stroke-width:0.5194;stroke-linecap:round;stroke-miterlimit:10;" d="M216.301,427.605
				c0,0-7.376-1.372-10.292-3.431"/>
			<path style="fill:#BA5050;" d="M144.829,298.212c0-9.638-5.524-17.981-13.575-22.051c-7.321,10.546-12.214,19.975-12.727,26.74
				c-0.342,8.562,1.366,15.327,3.164,19.958C134.605,322.051,144.829,311.328,144.829,298.212z"/>
		</g>
		<path style="fill:none;stroke:#993C3C;stroke-width:0.5194;stroke-miterlimit:10;" d="M347.315,306.114
			c0,0,4.285-8.169,8.857-13.582"/>
		<path style="fill:none;stroke:#993C3C;stroke-width:0.5194;stroke-miterlimit:10;" d="M164.193,306.114
			c0,0-4.285-8.169-8.857-13.582"/>
		<path style="fill:none;stroke:#FFF6E7;stroke-width:0.5194;stroke-miterlimit:10;" d="M322.995,378.375
			c0,0,16.124,6.175,21.956,16.467"/>
		<path style="fill:none;stroke:#FFF6E7;stroke-width:0.5194;stroke-miterlimit:10;" d="M188.513,378.375
			c0,0-16.124,6.175-21.956,16.467"/>
		<path style="fill:none;stroke:#FFF6E7;stroke-width:0.5194;stroke-miterlimit:10;" d="M277.193,195.043
			c0,0,14.812,8.94,6.895,44.712"/>
		<path style="fill:none;stroke:#FFF6E7;stroke-width:0.5194;stroke-miterlimit:10;" d="M234.316,195.043
			c0,0-14.812,8.94-6.895,44.712"/>
	</g>
</g>
</svg>
